<svg xmlns="http://www.w3.org/2000/svg" version="1.1" xmlns:xlink="http://www.w3.org/1999/xlink" xmlns:svgjs="http://svgjs.com/svgjs" width="1440" height="560" preserveAspectRatio="none" viewBox="0 0 1440 560"><g mask="url(&quot;#SvgjsMask1019&quot;)" fill="none"><rect width="1440" height="560" x="0" y="0" fill="#0e2a47"></rect><path d="M599.48 16.3L641.22 16.3L641.22 33.11L599.48 33.11z" fill="#037b0b"></path><path d="M719.56 59.75L741.82 59.75L741.82 74.93L719.56 74.93z" stroke="#037b0b"></path><path d="M683.86 509.83a7.92 7.92 0 1 0-10.47-11.89z" fill="#037b0b"></path><path d="M175.39 220.95a36.58 36.58 0 1 0 73.02 4.6z" stroke="#e73635"></path><path d="M101.97 507.99L142.38 507.99L142.38 548.4L101.97 548.4z" fill="#d3b714"></path><path d="M873.42 328.02L875.29 328.02L875.29 374.07L873.42 374.07z" fill="#037b0b"></path><path d="M1409.22 388.98L1409.65 388.98L1409.65 389.41L1409.22 389.41z" fill="#037b0b"></path><path d="M65.24 301.03L107.97 301.03L107.97 330.59L65.24 330.59z" fill="#d3b714"></path><path d="M607.35 135.42L659.02 135.42L659.02 152.77L607.35 152.77z" fill="#037b0b"></path><path d="M877.81 536.83a12.43 12.43 0 1 0-2.85 24.69z" fill="#037b0b"></path><path d="M993.73 66.58a4.49 4.49 0 1 0 3.1 8.42z" stroke="#d3b714"></path><path d="M674.04 209.72 a27.45 27.45 0 1 0 54.9 0 a27.45 27.45 0 1 0 -54.9 0z" stroke="#d3b714"></path><path d="M194.8 497a36.5 36.5 0 1 0-24.03-68.94z" stroke="#d3b714"></path><path d="M426.06 346.5L441.86 346.5L441.86 384.95L426.06 384.95z" fill="#d3b714"></path><path d="M558.11 186.86 a33.16 33.16 0 1 0 66.32 0 a33.16 33.16 0 1 0 -66.32 0z" fill="#e73635"></path><path d="M580.89 143.78a25.29 25.29 0 1 0-49.53 10.27z" fill="#d3b714"></path><path d="M1021.54 66.21 a26.66 26.66 0 1 0 53.32 0 a26.66 26.66 0 1 0 -53.32 0z" stroke="#037b0b"></path><path d="M85.85 148.95a25.61 25.61 0 1 0 49.81 11.93z" stroke="#037b0b"></path><path d="M741.67 442.61 a26.72 26.72 0 1 0 53.44 0 a26.72 26.72 0 1 0 -53.44 0z" stroke="#d3b714"></path><path d="M618.66 216.97 a5.64 5.64 0 1 0 11.28 0 a5.64 5.64 0 1 0 -11.28 0z" stroke="#e73635"></path><path d="M1103.23 299.7L1139.9 299.7L1139.9 321.23L1103.23 321.23z" stroke="#037b0b"></path><path d="M723.07 104.6 a18.79 18.79 0 1 0 37.58 0 a18.79 18.79 0 1 0 -37.58 0z" fill="#e73635"></path><path d="M1217.16 472.52L1229.12 472.52L1229.12 497.35L1217.16 497.35z" fill="#e73635"></path><path d="M594.45 241.64L647.65 241.64L647.65 245.19L594.45 245.19z" fill="#037b0b"></path><path d="M65.25 453.19a1.43 1.43 0 1 0-1.25-2.57z" fill="#e73635"></path><path d="M22.86 170.72L39.74 170.72L39.74 187.6L22.86 187.6z" fill="#037b0b"></path><path d="M350.45 127.73a5.44 5.44 0 1 0 9.88-4.54z" fill="#e73635"></path><path d="M1252.34 526.69a49.98 49.98 0 1 0 83.87-54.38z" stroke="#037b0b"></path><path d="M883.05 175.4 a38.17 38.17 0 1 0 76.34 0 a38.17 38.17 0 1 0 -76.34 0z" stroke="#d3b714"></path><path d="M1064.47 168.79 a6.72 6.72 0 1 0 13.44 0 a6.72 6.72 0 1 0 -13.44 0z" fill="#037b0b"></path><path d="M1319.38 83.5L1332.48 83.5L1332.48 96.6L1319.38 96.6z" stroke="#d3b714"></path><path d="M373.03 475.93L427.13 475.93L427.13 481.37L373.03 481.37z" fill="#d3b714"></path><path d="M929.69 349.24a8.63 8.63 0 1 0-10.98-13.33z" fill="#037b0b"></path></g><defs><mask id="SvgjsMask1019"><rect width="1440" height="560" fill="#ffffff"></rect></mask></defs></svg>