<svg xmlns="http://www.w3.org/2000/svg" version="1.1" xmlns:xlink="http://www.w3.org/1999/xlink" xmlns:svgjs="http://svgjs.com/svgjs" width="1440" height="560" preserveAspectRatio="none" viewBox="0 0 1440 560"><g mask="url(&quot;#SvgjsMask1009&quot;)" fill="none"><rect width="1440" height="560" x="0" y="0" fill="#0e2a47"></rect><path d="M75.6 295.87L112.84 317.37L112.84 360.37L75.6 381.87L38.36 360.37L38.36 317.37zM38.36 360.37L75.6 381.87L75.6 424.87L38.36 446.37L1.12 424.87L1.12 381.87zM75.6 553.87L112.84 575.37L112.84 618.37L75.6 639.87L38.36 618.37L38.36 575.37zM112.84 -26.63L150.08 -5.13L150.08 37.87L112.84 59.37L75.6 37.87L75.6 -5.13zM112.84 102.37L150.08 123.87L150.08 166.87L112.84 188.37L75.6 166.87L75.6 123.87zM150.08 166.87L187.32 188.37L187.32 231.37L150.08 252.87L112.84 231.37L112.84 188.37zM112.84 360.37L150.08 381.87L150.08 424.87L112.84 446.37L75.6 424.87L75.6 381.87zM112.84 489.37L150.08 510.87L150.08 553.87L112.84 575.37L75.6 553.87L75.6 510.87zM150.08 553.87L187.32 575.37L187.32 618.37L150.08 639.87L112.84 618.37L112.84 575.37zM187.32 102.37L224.56 123.87L224.56 166.87L187.32 188.37L150.08 166.87L150.08 123.87zM187.32 360.37L224.56 381.87L224.56 424.87L187.32 446.37L150.08 424.87L150.08 381.87zM224.56 424.87L261.8 446.37L261.8 489.37L224.56 510.87L187.32 489.37L187.32 446.37zM224.56 553.87L261.8 575.37L261.8 618.37L224.56 639.87L187.32 618.37L187.32 575.37zM261.8 -26.63L299.04 -5.13L299.04 37.87L261.8 59.37L224.56 37.87L224.56 -5.13zM261.8 102.37L299.04 123.87L299.04 166.87L261.8 188.37L224.56 166.87L224.56 123.87zM299.04 424.87L336.28 446.37L336.28 489.37L299.04 510.87L261.8 489.37L261.8 446.37zM261.8 489.37L299.04 510.87L299.04 553.87L261.8 575.37L224.56 553.87L224.56 510.87zM336.28 -26.63L373.52 -5.13L373.52 37.87L336.28 59.37L299.04 37.87L299.04 -5.13zM373.52 37.87L410.76 59.37L410.76 102.37L373.52 123.87L336.28 102.37L336.28 59.37zM336.28 102.37L373.52 123.87L373.52 166.87L336.28 188.37L299.04 166.87L299.04 123.87zM336.28 231.37L373.52 252.87L373.52 295.87L336.28 317.37L299.04 295.87L299.04 252.87zM373.52 424.87L410.76 446.37L410.76 489.37L373.52 510.87L336.28 489.37L336.28 446.37zM448 37.87L485.24 59.37L485.24 102.37L448 123.87L410.76 102.37L410.76 59.37zM410.76 231.37L448 252.87L448 295.87L410.76 317.37L373.52 295.87L373.52 252.87zM485.24 102.37L522.48 123.87L522.48 166.87L485.24 188.37L448 166.87L448 123.87zM485.24 360.37L522.48 381.87L522.48 424.87L485.24 446.37L448 424.87L448 381.87zM522.48 553.87L559.72 575.37L559.72 618.37L522.48 639.87L485.24 618.37L485.24 575.37zM559.72 -26.63L596.96 -5.13L596.96 37.87L559.72 59.37L522.48 37.87L522.48 -5.13zM559.72 102.37L596.96 123.87L596.96 166.87L559.72 188.37L522.48 166.87L522.48 123.87zM559.72 231.37L596.96 252.87L596.96 295.87L559.72 317.37L522.48 295.87L522.48 252.87zM596.96 295.87L634.2 317.37L634.2 360.37L596.96 381.87L559.72 360.37L559.72 317.37zM671.44 37.87L708.68 59.37L708.68 102.37L671.44 123.87L634.2 102.37L634.2 59.37zM671.44 166.87L708.68 188.37L708.68 231.37L671.44 252.87L634.2 231.37L634.2 188.37zM634.2 231.37L671.44 252.87L671.44 295.87L634.2 317.37L596.96 295.87L596.96 252.87zM671.44 295.87L708.68 317.37L708.68 360.37L671.44 381.87L634.2 360.37L634.2 317.37zM634.2 489.37L671.44 510.87L671.44 553.87L634.2 575.37L596.96 553.87L596.96 510.87zM745.92 37.87L783.16 59.37L783.16 102.37L745.92 123.87L708.68 102.37L708.68 59.37zM745.92 166.87L783.16 188.37L783.16 231.37L745.92 252.87L708.68 231.37L708.68 188.37zM708.68 231.37L745.92 252.87L745.92 295.87L708.68 317.37L671.44 295.87L671.44 252.87zM745.92 295.87L783.16 317.37L783.16 360.37L745.92 381.87L708.68 360.37L708.68 317.37zM708.68 360.37L745.92 381.87L745.92 424.87L708.68 446.37L671.44 424.87L671.44 381.87zM708.68 489.37L745.92 510.87L745.92 553.87L708.68 575.37L671.44 553.87L671.44 510.87zM745.92 553.87L783.16 575.37L783.16 618.37L745.92 639.87L708.68 618.37L708.68 575.37zM783.16 102.37L820.4 123.87L820.4 166.87L783.16 188.37L745.92 166.87L745.92 123.87zM783.16 360.37L820.4 381.87L820.4 424.87L783.16 446.37L745.92 424.87L745.92 381.87zM820.4 553.87L857.64 575.37L857.64 618.37L820.4 639.87L783.16 618.37L783.16 575.37zM857.64 -26.63L894.88 -5.13L894.88 37.87L857.64 59.37L820.4 37.87L820.4 -5.13zM894.88 37.87L932.12 59.37L932.12 102.37L894.88 123.87L857.64 102.37L857.64 59.37zM894.88 166.87L932.12 188.37L932.12 231.37L894.88 252.87L857.64 231.37L857.64 188.37zM894.88 295.87L932.12 317.37L932.12 360.37L894.88 381.87L857.64 360.37L857.64 317.37zM857.64 489.37L894.88 510.87L894.88 553.87L857.64 575.37L820.4 553.87L820.4 510.87zM894.88 553.87L932.12 575.37L932.12 618.37L894.88 639.87L857.64 618.37L857.64 575.37zM932.12 -26.63L969.36 -5.13L969.36 37.87L932.12 59.37L894.88 37.87L894.88 -5.13zM932.12 360.37L969.36 381.87L969.36 424.87L932.12 446.37L894.88 424.87L894.88 381.87zM969.36 424.87L1006.6 446.37L1006.6 489.37L969.36 510.87L932.12 489.37L932.12 446.37zM932.12 489.37L969.36 510.87L969.36 553.87L932.12 575.37L894.88 553.87L894.88 510.87zM1006.6 102.37L1043.84 123.87L1043.84 166.87L1006.6 188.37L969.36 166.87L969.36 123.87zM1006.6 489.37L1043.84 510.87L1043.84 553.87L1006.6 575.37L969.36 553.87L969.36 510.87zM1081.08 -26.63L1118.32 -5.13L1118.32 37.87L1081.08 59.37L1043.84 37.87L1043.84 -5.13zM1118.32 37.87L1155.56 59.37L1155.56 102.37L1118.32 123.87L1081.08 102.37L1081.08 59.37zM1081.08 102.37L1118.32 123.87L1118.32 166.87L1081.08 188.37L1043.84 166.87L1043.84 123.87zM1118.32 166.87L1155.56 188.37L1155.56 231.37L1118.32 252.87L1081.08 231.37L1081.08 188.37zM1081.08 360.37L1118.32 381.87L1118.32 424.87L1081.08 446.37L1043.84 424.87L1043.84 381.87zM1155.56 -26.63L1192.8 -5.13L1192.8 37.87L1155.56 59.37L1118.32 37.87L1118.32 -5.13zM1155.56 231.37L1192.8 252.87L1192.8 295.87L1155.56 317.37L1118.32 295.87L1118.32 252.87zM1155.56 360.37L1192.8 381.87L1192.8 424.87L1155.56 446.37L1118.32 424.87L1118.32 381.87zM1192.8 424.87L1230.04 446.37L1230.04 489.37L1192.8 510.87L1155.56 489.37L1155.56 446.37zM1230.04 -26.63L1267.28 -5.13L1267.28 37.87L1230.04 59.37L1192.8 37.87L1192.8 -5.13zM1230.04 102.37L1267.28 123.87L1267.28 166.87L1230.04 188.37L1192.8 166.87L1192.8 123.87zM1267.28 166.87L1304.53 188.37L1304.53 231.37L1267.28 252.87L1230.04 231.37L1230.04 188.37zM1230.04 489.37L1267.28 510.87L1267.28 553.87L1230.04 575.37L1192.8 553.87L1192.8 510.87zM1267.28 553.87L1304.53 575.37L1304.53 618.37L1267.28 639.87L1230.04 618.37L1230.04 575.37zM1304.53 -26.63L1341.77 -5.13L1341.77 37.87L1304.53 59.37L1267.28 37.87L1267.28 -5.13zM1341.77 37.87L1379.01 59.37L1379.01 102.37L1341.77 123.87L1304.53 102.37L1304.53 59.37zM1304.53 102.37L1341.77 123.87L1341.77 166.87L1304.53 188.37L1267.28 166.87L1267.28 123.87zM1304.53 231.37L1341.77 252.87L1341.77 295.87L1304.53 317.37L1267.28 295.87L1267.28 252.87zM1341.77 553.87L1379.01 575.37L1379.01 618.37L1341.77 639.87L1304.53 618.37L1304.53 575.37zM1379.01 -26.63L1416.25 -5.13L1416.25 37.87L1379.01 59.37L1341.77 37.87L1341.77 -5.13zM1416.25 166.87L1453.49 188.37L1453.49 231.37L1416.25 252.87L1379.01 231.37L1379.01 188.37zM1416.25 295.87L1453.49 317.37L1453.49 360.37L1416.25 381.87L1379.01 360.37L1379.01 317.37zM1416.25 424.87L1453.49 446.37L1453.49 489.37L1416.25 510.87L1379.01 489.37L1379.01 446.37zM1379.01 489.37L1416.25 510.87L1416.25 553.87L1379.01 575.37L1341.77 553.87L1341.77 510.87zM1453.49 -26.63L1490.73 -5.13L1490.73 37.87L1453.49 59.37L1416.25 37.87L1416.25 -5.13zM1490.73 37.87L1527.97 59.37L1527.97 102.37L1490.73 123.87L1453.49 102.37L1453.49 59.37zM1490.73 166.87L1527.97 188.37L1527.97 231.37L1490.73 252.87L1453.49 231.37L1453.49 188.37zM1490.73 553.87L1527.97 575.37L1527.97 618.37L1490.73 639.87L1453.49 618.37L1453.49 575.37z" stroke="#03305d" stroke-width="2"></path><path d="M71.3 295.87 a4.3 4.3 0 1 0 8.6 0 a4.3 4.3 0 1 0 -8.6 0zM108.54 317.37 a4.3 4.3 0 1 0 8.6 0 a4.3 4.3 0 1 0 -8.6 0zM108.54 360.37 a4.3 4.3 0 1 0 8.6 0 a4.3 4.3 0 1 0 -8.6 0zM71.3 381.87 a4.3 4.3 0 1 0 8.6 0 a4.3 4.3 0 1 0 -8.6 0zM34.06 360.37 a4.3 4.3 0 1 0 8.6 0 a4.3 4.3 0 1 0 -8.6 0zM34.06 317.37 a4.3 4.3 0 1 0 8.6 0 a4.3 4.3 0 1 0 -8.6 0zM71.3 424.87 a4.3 4.3 0 1 0 8.6 0 a4.3 4.3 0 1 0 -8.6 0zM34.06 446.37 a4.3 4.3 0 1 0 8.6 0 a4.3 4.3 0 1 0 -8.6 0zM-3.18 424.87 a4.3 4.3 0 1 0 8.6 0 a4.3 4.3 0 1 0 -8.6 0zM-3.18 381.87 a4.3 4.3 0 1 0 8.6 0 a4.3 4.3 0 1 0 -8.6 0zM71.3 553.87 a4.3 4.3 0 1 0 8.6 0 a4.3 4.3 0 1 0 -8.6 0zM108.54 575.37 a4.3 4.3 0 1 0 8.6 0 a4.3 4.3 0 1 0 -8.6 0zM108.54 618.37 a4.3 4.3 0 1 0 8.6 0 a4.3 4.3 0 1 0 -8.6 0zM71.3 639.87 a4.3 4.3 0 1 0 8.6 0 a4.3 4.3 0 1 0 -8.6 0zM34.06 618.37 a4.3 4.3 0 1 0 8.6 0 a4.3 4.3 0 1 0 -8.6 0zM34.06 575.37 a4.3 4.3 0 1 0 8.6 0 a4.3 4.3 0 1 0 -8.6 0zM108.54 -26.63 a4.3 4.3 0 1 0 8.6 0 a4.3 4.3 0 1 0 -8.6 0zM145.78 -5.13 a4.3 4.3 0 1 0 8.6 0 a4.3 4.3 0 1 0 -8.6 0zM145.78 37.87 a4.3 4.3 0 1 0 8.6 0 a4.3 4.3 0 1 0 -8.6 0zM108.54 59.37 a4.3 4.3 0 1 0 8.6 0 a4.3 4.3 0 1 0 -8.6 0zM71.3 37.87 a4.3 4.3 0 1 0 8.6 0 a4.3 4.3 0 1 0 -8.6 0zM71.3 -5.13 a4.3 4.3 0 1 0 8.6 0 a4.3 4.3 0 1 0 -8.6 0zM108.54 102.37 a4.3 4.3 0 1 0 8.6 0 a4.3 4.3 0 1 0 -8.6 0zM145.78 123.87 a4.3 4.3 0 1 0 8.6 0 a4.3 4.3 0 1 0 -8.6 0zM145.78 166.87 a4.3 4.3 0 1 0 8.6 0 a4.3 4.3 0 1 0 -8.6 0zM108.54 188.37 a4.3 4.3 0 1 0 8.6 0 a4.3 4.3 0 1 0 -8.6 0zM71.3 166.87 a4.3 4.3 0 1 0 8.6 0 a4.3 4.3 0 1 0 -8.6 0zM71.3 123.87 a4.3 4.3 0 1 0 8.6 0 a4.3 4.3 0 1 0 -8.6 0zM183.02 188.37 a4.3 4.3 0 1 0 8.6 0 a4.3 4.3 0 1 0 -8.6 0zM183.02 231.37 a4.3 4.3 0 1 0 8.6 0 a4.3 4.3 0 1 0 -8.6 0zM145.78 252.87 a4.3 4.3 0 1 0 8.6 0 a4.3 4.3 0 1 0 -8.6 0zM108.54 231.37 a4.3 4.3 0 1 0 8.6 0 a4.3 4.3 0 1 0 -8.6 0zM145.78 381.87 a4.3 4.3 0 1 0 8.6 0 a4.3 4.3 0 1 0 -8.6 0zM145.78 424.87 a4.3 4.3 0 1 0 8.6 0 a4.3 4.3 0 1 0 -8.6 0zM108.54 446.37 a4.3 4.3 0 1 0 8.6 0 a4.3 4.3 0 1 0 -8.6 0zM108.54 489.37 a4.3 4.3 0 1 0 8.6 0 a4.3 4.3 0 1 0 -8.6 0zM145.78 510.87 a4.3 4.3 0 1 0 8.6 0 a4.3 4.3 0 1 0 -8.6 0zM145.78 553.87 a4.3 4.3 0 1 0 8.6 0 a4.3 4.3 0 1 0 -8.6 0zM71.3 510.87 a4.3 4.3 0 1 0 8.6 0 a4.3 4.3 0 1 0 -8.6 0zM183.02 575.37 a4.3 4.3 0 1 0 8.6 0 a4.3 4.3 0 1 0 -8.6 0zM183.02 618.37 a4.3 4.3 0 1 0 8.6 0 a4.3 4.3 0 1 0 -8.6 0zM145.78 639.87 a4.3 4.3 0 1 0 8.6 0 a4.3 4.3 0 1 0 -8.6 0zM183.02 102.37 a4.3 4.3 0 1 0 8.6 0 a4.3 4.3 0 1 0 -8.6 0zM220.26 123.87 a4.3 4.3 0 1 0 8.6 0 a4.3 4.3 0 1 0 -8.6 0zM220.26 166.87 a4.3 4.3 0 1 0 8.6 0 a4.3 4.3 0 1 0 -8.6 0zM183.02 360.37 a4.3 4.3 0 1 0 8.6 0 a4.3 4.3 0 1 0 -8.6 0zM220.26 381.87 a4.3 4.3 0 1 0 8.6 0 a4.3 4.3 0 1 0 -8.6 0zM220.26 424.87 a4.3 4.3 0 1 0 8.6 0 a4.3 4.3 0 1 0 -8.6 0zM183.02 446.37 a4.3 4.3 0 1 0 8.6 0 a4.3 4.3 0 1 0 -8.6 0zM257.5 446.37 a4.3 4.3 0 1 0 8.6 0 a4.3 4.3 0 1 0 -8.6 0zM257.5 489.37 a4.3 4.3 0 1 0 8.6 0 a4.3 4.3 0 1 0 -8.6 0zM220.26 510.87 a4.3 4.3 0 1 0 8.6 0 a4.3 4.3 0 1 0 -8.6 0zM183.02 489.37 a4.3 4.3 0 1 0 8.6 0 a4.3 4.3 0 1 0 -8.6 0zM220.26 553.87 a4.3 4.3 0 1 0 8.6 0 a4.3 4.3 0 1 0 -8.6 0zM257.5 575.37 a4.3 4.3 0 1 0 8.6 0 a4.3 4.3 0 1 0 -8.6 0zM257.5 618.37 a4.3 4.3 0 1 0 8.6 0 a4.3 4.3 0 1 0 -8.6 0zM220.26 639.87 a4.3 4.3 0 1 0 8.6 0 a4.3 4.3 0 1 0 -8.6 0zM257.5 -26.63 a4.3 4.3 0 1 0 8.6 0 a4.3 4.3 0 1 0 -8.6 0zM294.74 -5.13 a4.3 4.3 0 1 0 8.6 0 a4.3 4.3 0 1 0 -8.6 0zM294.74 37.87 a4.3 4.3 0 1 0 8.6 0 a4.3 4.3 0 1 0 -8.6 0zM257.5 59.37 a4.3 4.3 0 1 0 8.6 0 a4.3 4.3 0 1 0 -8.6 0zM220.26 37.87 a4.3 4.3 0 1 0 8.6 0 a4.3 4.3 0 1 0 -8.6 0zM220.26 -5.13 a4.3 4.3 0 1 0 8.6 0 a4.3 4.3 0 1 0 -8.6 0zM257.5 102.37 a4.3 4.3 0 1 0 8.6 0 a4.3 4.3 0 1 0 -8.6 0zM294.74 123.87 a4.3 4.3 0 1 0 8.6 0 a4.3 4.3 0 1 0 -8.6 0zM294.74 166.87 a4.3 4.3 0 1 0 8.6 0 a4.3 4.3 0 1 0 -8.6 0zM257.5 188.37 a4.3 4.3 0 1 0 8.6 0 a4.3 4.3 0 1 0 -8.6 0zM294.74 424.87 a4.3 4.3 0 1 0 8.6 0 a4.3 4.3 0 1 0 -8.6 0zM331.98 446.37 a4.3 4.3 0 1 0 8.6 0 a4.3 4.3 0 1 0 -8.6 0zM331.98 489.37 a4.3 4.3 0 1 0 8.6 0 a4.3 4.3 0 1 0 -8.6 0zM294.74 510.87 a4.3 4.3 0 1 0 8.6 0 a4.3 4.3 0 1 0 -8.6 0zM294.74 553.87 a4.3 4.3 0 1 0 8.6 0 a4.3 4.3 0 1 0 -8.6 0zM331.98 -26.63 a4.3 4.3 0 1 0 8.6 0 a4.3 4.3 0 1 0 -8.6 0zM369.22 -5.13 a4.3 4.3 0 1 0 8.6 0 a4.3 4.3 0 1 0 -8.6 0zM369.22 37.87 a4.3 4.3 0 1 0 8.6 0 a4.3 4.3 0 1 0 -8.6 0zM331.98 59.37 a4.3 4.3 0 1 0 8.6 0 a4.3 4.3 0 1 0 -8.6 0zM406.46 59.37 a4.3 4.3 0 1 0 8.6 0 a4.3 4.3 0 1 0 -8.6 0zM406.46 102.37 a4.3 4.3 0 1 0 8.6 0 a4.3 4.3 0 1 0 -8.6 0zM369.22 123.87 a4.3 4.3 0 1 0 8.6 0 a4.3 4.3 0 1 0 -8.6 0zM331.98 102.37 a4.3 4.3 0 1 0 8.6 0 a4.3 4.3 0 1 0 -8.6 0zM369.22 166.87 a4.3 4.3 0 1 0 8.6 0 a4.3 4.3 0 1 0 -8.6 0zM331.98 188.37 a4.3 4.3 0 1 0 8.6 0 a4.3 4.3 0 1 0 -8.6 0zM331.98 231.37 a4.3 4.3 0 1 0 8.6 0 a4.3 4.3 0 1 0 -8.6 0zM369.22 252.87 a4.3 4.3 0 1 0 8.6 0 a4.3 4.3 0 1 0 -8.6 0zM369.22 295.87 a4.3 4.3 0 1 0 8.6 0 a4.3 4.3 0 1 0 -8.6 0zM331.98 317.37 a4.3 4.3 0 1 0 8.6 0 a4.3 4.3 0 1 0 -8.6 0zM294.74 295.87 a4.3 4.3 0 1 0 8.6 0 a4.3 4.3 0 1 0 -8.6 0zM294.74 252.87 a4.3 4.3 0 1 0 8.6 0 a4.3 4.3 0 1 0 -8.6 0zM369.22 424.87 a4.3 4.3 0 1 0 8.6 0 a4.3 4.3 0 1 0 -8.6 0zM406.46 446.37 a4.3 4.3 0 1 0 8.6 0 a4.3 4.3 0 1 0 -8.6 0zM406.46 489.37 a4.3 4.3 0 1 0 8.6 0 a4.3 4.3 0 1 0 -8.6 0zM369.22 510.87 a4.3 4.3 0 1 0 8.6 0 a4.3 4.3 0 1 0 -8.6 0zM443.7 37.87 a4.3 4.3 0 1 0 8.6 0 a4.3 4.3 0 1 0 -8.6 0zM480.94 59.37 a4.3 4.3 0 1 0 8.6 0 a4.3 4.3 0 1 0 -8.6 0zM480.94 102.37 a4.3 4.3 0 1 0 8.6 0 a4.3 4.3 0 1 0 -8.6 0zM443.7 123.87 a4.3 4.3 0 1 0 8.6 0 a4.3 4.3 0 1 0 -8.6 0zM406.46 231.37 a4.3 4.3 0 1 0 8.6 0 a4.3 4.3 0 1 0 -8.6 0zM443.7 252.87 a4.3 4.3 0 1 0 8.6 0 a4.3 4.3 0 1 0 -8.6 0zM443.7 295.87 a4.3 4.3 0 1 0 8.6 0 a4.3 4.3 0 1 0 -8.6 0zM406.46 317.37 a4.3 4.3 0 1 0 8.6 0 a4.3 4.3 0 1 0 -8.6 0zM518.18 123.87 a4.3 4.3 0 1 0 8.6 0 a4.3 4.3 0 1 0 -8.6 0zM518.18 166.87 a4.3 4.3 0 1 0 8.6 0 a4.3 4.3 0 1 0 -8.6 0zM480.94 188.37 a4.3 4.3 0 1 0 8.6 0 a4.3 4.3 0 1 0 -8.6 0zM443.7 166.87 a4.3 4.3 0 1 0 8.6 0 a4.3 4.3 0 1 0 -8.6 0zM480.94 360.37 a4.3 4.3 0 1 0 8.6 0 a4.3 4.3 0 1 0 -8.6 0zM518.18 381.87 a4.3 4.3 0 1 0 8.6 0 a4.3 4.3 0 1 0 -8.6 0zM518.18 424.87 a4.3 4.3 0 1 0 8.6 0 a4.3 4.3 0 1 0 -8.6 0zM480.94 446.37 a4.3 4.3 0 1 0 8.6 0 a4.3 4.3 0 1 0 -8.6 0zM443.7 424.87 a4.3 4.3 0 1 0 8.6 0 a4.3 4.3 0 1 0 -8.6 0zM443.7 381.87 a4.3 4.3 0 1 0 8.6 0 a4.3 4.3 0 1 0 -8.6 0zM518.18 553.87 a4.3 4.3 0 1 0 8.6 0 a4.3 4.3 0 1 0 -8.6 0zM555.42 575.37 a4.3 4.3 0 1 0 8.6 0 a4.3 4.3 0 1 0 -8.6 0zM555.42 618.37 a4.3 4.3 0 1 0 8.6 0 a4.3 4.3 0 1 0 -8.6 0zM518.18 639.87 a4.3 4.3 0 1 0 8.6 0 a4.3 4.3 0 1 0 -8.6 0zM480.94 618.37 a4.3 4.3 0 1 0 8.6 0 a4.3 4.3 0 1 0 -8.6 0zM480.94 575.37 a4.3 4.3 0 1 0 8.6 0 a4.3 4.3 0 1 0 -8.6 0zM555.42 -26.63 a4.3 4.3 0 1 0 8.6 0 a4.3 4.3 0 1 0 -8.6 0zM592.66 -5.13 a4.3 4.3 0 1 0 8.6 0 a4.3 4.3 0 1 0 -8.6 0zM592.66 37.87 a4.3 4.3 0 1 0 8.6 0 a4.3 4.3 0 1 0 -8.6 0zM555.42 59.37 a4.3 4.3 0 1 0 8.6 0 a4.3 4.3 0 1 0 -8.6 0zM518.18 37.87 a4.3 4.3 0 1 0 8.6 0 a4.3 4.3 0 1 0 -8.6 0zM518.18 -5.13 a4.3 4.3 0 1 0 8.6 0 a4.3 4.3 0 1 0 -8.6 0zM555.42 102.37 a4.3 4.3 0 1 0 8.6 0 a4.3 4.3 0 1 0 -8.6 0zM592.66 123.87 a4.3 4.3 0 1 0 8.6 0 a4.3 4.3 0 1 0 -8.6 0zM592.66 166.87 a4.3 4.3 0 1 0 8.6 0 a4.3 4.3 0 1 0 -8.6 0zM555.42 188.37 a4.3 4.3 0 1 0 8.6 0 a4.3 4.3 0 1 0 -8.6 0zM555.42 231.37 a4.3 4.3 0 1 0 8.6 0 a4.3 4.3 0 1 0 -8.6 0zM592.66 252.87 a4.3 4.3 0 1 0 8.6 0 a4.3 4.3 0 1 0 -8.6 0zM592.66 295.87 a4.3 4.3 0 1 0 8.6 0 a4.3 4.3 0 1 0 -8.6 0zM555.42 317.37 a4.3 4.3 0 1 0 8.6 0 a4.3 4.3 0 1 0 -8.6 0zM518.18 295.87 a4.3 4.3 0 1 0 8.6 0 a4.3 4.3 0 1 0 -8.6 0zM518.18 252.87 a4.3 4.3 0 1 0 8.6 0 a4.3 4.3 0 1 0 -8.6 0zM629.9 317.37 a4.3 4.3 0 1 0 8.6 0 a4.3 4.3 0 1 0 -8.6 0zM629.9 360.37 a4.3 4.3 0 1 0 8.6 0 a4.3 4.3 0 1 0 -8.6 0zM592.66 381.87 a4.3 4.3 0 1 0 8.6 0 a4.3 4.3 0 1 0 -8.6 0zM555.42 360.37 a4.3 4.3 0 1 0 8.6 0 a4.3 4.3 0 1 0 -8.6 0zM667.14 37.87 a4.3 4.3 0 1 0 8.6 0 a4.3 4.3 0 1 0 -8.6 0zM704.38 59.37 a4.3 4.3 0 1 0 8.6 0 a4.3 4.3 0 1 0 -8.6 0zM704.38 102.37 a4.3 4.3 0 1 0 8.6 0 a4.3 4.3 0 1 0 -8.6 0zM667.14 123.87 a4.3 4.3 0 1 0 8.6 0 a4.3 4.3 0 1 0 -8.6 0zM629.9 102.37 a4.3 4.3 0 1 0 8.6 0 a4.3 4.3 0 1 0 -8.6 0zM629.9 59.37 a4.3 4.3 0 1 0 8.6 0 a4.3 4.3 0 1 0 -8.6 0zM667.14 166.87 a4.3 4.3 0 1 0 8.6 0 a4.3 4.3 0 1 0 -8.6 0zM704.38 188.37 a4.3 4.3 0 1 0 8.6 0 a4.3 4.3 0 1 0 -8.6 0zM704.38 231.37 a4.3 4.3 0 1 0 8.6 0 a4.3 4.3 0 1 0 -8.6 0zM667.14 252.87 a4.3 4.3 0 1 0 8.6 0 a4.3 4.3 0 1 0 -8.6 0zM629.9 231.37 a4.3 4.3 0 1 0 8.6 0 a4.3 4.3 0 1 0 -8.6 0zM629.9 188.37 a4.3 4.3 0 1 0 8.6 0 a4.3 4.3 0 1 0 -8.6 0zM667.14 295.87 a4.3 4.3 0 1 0 8.6 0 a4.3 4.3 0 1 0 -8.6 0zM704.38 317.37 a4.3 4.3 0 1 0 8.6 0 a4.3 4.3 0 1 0 -8.6 0zM704.38 360.37 a4.3 4.3 0 1 0 8.6 0 a4.3 4.3 0 1 0 -8.6 0zM667.14 381.87 a4.3 4.3 0 1 0 8.6 0 a4.3 4.3 0 1 0 -8.6 0zM629.9 489.37 a4.3 4.3 0 1 0 8.6 0 a4.3 4.3 0 1 0 -8.6 0zM667.14 510.87 a4.3 4.3 0 1 0 8.6 0 a4.3 4.3 0 1 0 -8.6 0zM667.14 553.87 a4.3 4.3 0 1 0 8.6 0 a4.3 4.3 0 1 0 -8.6 0zM629.9 575.37 a4.3 4.3 0 1 0 8.6 0 a4.3 4.3 0 1 0 -8.6 0zM592.66 553.87 a4.3 4.3 0 1 0 8.6 0 a4.3 4.3 0 1 0 -8.6 0zM592.66 510.87 a4.3 4.3 0 1 0 8.6 0 a4.3 4.3 0 1 0 -8.6 0zM741.62 37.87 a4.3 4.3 0 1 0 8.6 0 a4.3 4.3 0 1 0 -8.6 0zM778.86 59.37 a4.3 4.3 0 1 0 8.6 0 a4.3 4.3 0 1 0 -8.6 0zM778.86 102.37 a4.3 4.3 0 1 0 8.6 0 a4.3 4.3 0 1 0 -8.6 0zM741.62 123.87 a4.3 4.3 0 1 0 8.6 0 a4.3 4.3 0 1 0 -8.6 0zM741.62 166.87 a4.3 4.3 0 1 0 8.6 0 a4.3 4.3 0 1 0 -8.6 0zM778.86 188.37 a4.3 4.3 0 1 0 8.6 0 a4.3 4.3 0 1 0 -8.6 0zM778.86 231.37 a4.3 4.3 0 1 0 8.6 0 a4.3 4.3 0 1 0 -8.6 0zM741.62 252.87 a4.3 4.3 0 1 0 8.6 0 a4.3 4.3 0 1 0 -8.6 0zM741.62 295.87 a4.3 4.3 0 1 0 8.6 0 a4.3 4.3 0 1 0 -8.6 0zM778.86 317.37 a4.3 4.3 0 1 0 8.6 0 a4.3 4.3 0 1 0 -8.6 0zM778.86 360.37 a4.3 4.3 0 1 0 8.6 0 a4.3 4.3 0 1 0 -8.6 0zM741.62 381.87 a4.3 4.3 0 1 0 8.6 0 a4.3 4.3 0 1 0 -8.6 0zM741.62 424.87 a4.3 4.3 0 1 0 8.6 0 a4.3 4.3 0 1 0 -8.6 0zM704.38 446.37 a4.3 4.3 0 1 0 8.6 0 a4.3 4.3 0 1 0 -8.6 0zM667.14 424.87 a4.3 4.3 0 1 0 8.6 0 a4.3 4.3 0 1 0 -8.6 0zM704.38 489.37 a4.3 4.3 0 1 0 8.6 0 a4.3 4.3 0 1 0 -8.6 0zM741.62 510.87 a4.3 4.3 0 1 0 8.6 0 a4.3 4.3 0 1 0 -8.6 0zM741.62 553.87 a4.3 4.3 0 1 0 8.6 0 a4.3 4.3 0 1 0 -8.6 0zM704.38 575.37 a4.3 4.3 0 1 0 8.6 0 a4.3 4.3 0 1 0 -8.6 0zM778.86 575.37 a4.3 4.3 0 1 0 8.6 0 a4.3 4.3 0 1 0 -8.6 0zM778.86 618.37 a4.3 4.3 0 1 0 8.6 0 a4.3 4.3 0 1 0 -8.6 0zM741.62 639.87 a4.3 4.3 0 1 0 8.6 0 a4.3 4.3 0 1 0 -8.6 0zM704.38 618.37 a4.3 4.3 0 1 0 8.6 0 a4.3 4.3 0 1 0 -8.6 0zM816.1 123.87 a4.3 4.3 0 1 0 8.6 0 a4.3 4.3 0 1 0 -8.6 0zM816.1 166.87 a4.3 4.3 0 1 0 8.6 0 a4.3 4.3 0 1 0 -8.6 0zM816.1 381.87 a4.3 4.3 0 1 0 8.6 0 a4.3 4.3 0 1 0 -8.6 0zM816.1 424.87 a4.3 4.3 0 1 0 8.6 0 a4.3 4.3 0 1 0 -8.6 0zM778.86 446.37 a4.3 4.3 0 1 0 8.6 0 a4.3 4.3 0 1 0 -8.6 0zM816.1 553.87 a4.3 4.3 0 1 0 8.6 0 a4.3 4.3 0 1 0 -8.6 0zM853.34 575.37 a4.3 4.3 0 1 0 8.6 0 a4.3 4.3 0 1 0 -8.6 0zM853.34 618.37 a4.3 4.3 0 1 0 8.6 0 a4.3 4.3 0 1 0 -8.6 0zM816.1 639.87 a4.3 4.3 0 1 0 8.6 0 a4.3 4.3 0 1 0 -8.6 0zM853.34 -26.63 a4.3 4.3 0 1 0 8.6 0 a4.3 4.3 0 1 0 -8.6 0zM890.58 -5.13 a4.3 4.3 0 1 0 8.6 0 a4.3 4.3 0 1 0 -8.6 0zM890.58 37.87 a4.3 4.3 0 1 0 8.6 0 a4.3 4.3 0 1 0 -8.6 0zM853.34 59.37 a4.3 4.3 0 1 0 8.6 0 a4.3 4.3 0 1 0 -8.6 0zM816.1 37.87 a4.3 4.3 0 1 0 8.6 0 a4.3 4.3 0 1 0 -8.6 0zM816.1 -5.13 a4.3 4.3 0 1 0 8.6 0 a4.3 4.3 0 1 0 -8.6 0zM927.82 59.37 a4.3 4.3 0 1 0 8.6 0 a4.3 4.3 0 1 0 -8.6 0zM927.82 102.37 a4.3 4.3 0 1 0 8.6 0 a4.3 4.3 0 1 0 -8.6 0zM890.58 123.87 a4.3 4.3 0 1 0 8.6 0 a4.3 4.3 0 1 0 -8.6 0zM853.34 102.37 a4.3 4.3 0 1 0 8.6 0 a4.3 4.3 0 1 0 -8.6 0zM890.58 166.87 a4.3 4.3 0 1 0 8.6 0 a4.3 4.3 0 1 0 -8.6 0zM927.82 188.37 a4.3 4.3 0 1 0 8.6 0 a4.3 4.3 0 1 0 -8.6 0zM927.82 231.37 a4.3 4.3 0 1 0 8.6 0 a4.3 4.3 0 1 0 -8.6 0zM890.58 252.87 a4.3 4.3 0 1 0 8.6 0 a4.3 4.3 0 1 0 -8.6 0zM853.34 231.37 a4.3 4.3 0 1 0 8.6 0 a4.3 4.3 0 1 0 -8.6 0zM853.34 188.37 a4.3 4.3 0 1 0 8.6 0 a4.3 4.3 0 1 0 -8.6 0zM890.58 295.87 a4.3 4.3 0 1 0 8.6 0 a4.3 4.3 0 1 0 -8.6 0zM927.82 317.37 a4.3 4.3 0 1 0 8.6 0 a4.3 4.3 0 1 0 -8.6 0zM927.82 360.37 a4.3 4.3 0 1 0 8.6 0 a4.3 4.3 0 1 0 -8.6 0zM890.58 381.87 a4.3 4.3 0 1 0 8.6 0 a4.3 4.3 0 1 0 -8.6 0zM853.34 360.37 a4.3 4.3 0 1 0 8.6 0 a4.3 4.3 0 1 0 -8.6 0zM853.34 317.37 a4.3 4.3 0 1 0 8.6 0 a4.3 4.3 0 1 0 -8.6 0zM853.34 489.37 a4.3 4.3 0 1 0 8.6 0 a4.3 4.3 0 1 0 -8.6 0zM890.58 510.87 a4.3 4.3 0 1 0 8.6 0 a4.3 4.3 0 1 0 -8.6 0zM890.58 553.87 a4.3 4.3 0 1 0 8.6 0 a4.3 4.3 0 1 0 -8.6 0zM816.1 510.87 a4.3 4.3 0 1 0 8.6 0 a4.3 4.3 0 1 0 -8.6 0zM927.82 575.37 a4.3 4.3 0 1 0 8.6 0 a4.3 4.3 0 1 0 -8.6 0zM927.82 618.37 a4.3 4.3 0 1 0 8.6 0 a4.3 4.3 0 1 0 -8.6 0zM890.58 639.87 a4.3 4.3 0 1 0 8.6 0 a4.3 4.3 0 1 0 -8.6 0zM927.82 -26.63 a4.3 4.3 0 1 0 8.6 0 a4.3 4.3 0 1 0 -8.6 0zM965.06 -5.13 a4.3 4.3 0 1 0 8.6 0 a4.3 4.3 0 1 0 -8.6 0zM965.06 37.87 a4.3 4.3 0 1 0 8.6 0 a4.3 4.3 0 1 0 -8.6 0zM965.06 381.87 a4.3 4.3 0 1 0 8.6 0 a4.3 4.3 0 1 0 -8.6 0zM965.06 424.87 a4.3 4.3 0 1 0 8.6 0 a4.3 4.3 0 1 0 -8.6 0zM927.82 446.37 a4.3 4.3 0 1 0 8.6 0 a4.3 4.3 0 1 0 -8.6 0zM890.58 424.87 a4.3 4.3 0 1 0 8.6 0 a4.3 4.3 0 1 0 -8.6 0zM1002.3 446.37 a4.3 4.3 0 1 0 8.6 0 a4.3 4.3 0 1 0 -8.6 0zM1002.3 489.37 a4.3 4.3 0 1 0 8.6 0 a4.3 4.3 0 1 0 -8.6 0zM965.06 510.87 a4.3 4.3 0 1 0 8.6 0 a4.3 4.3 0 1 0 -8.6 0zM927.82 489.37 a4.3 4.3 0 1 0 8.6 0 a4.3 4.3 0 1 0 -8.6 0zM965.06 553.87 a4.3 4.3 0 1 0 8.6 0 a4.3 4.3 0 1 0 -8.6 0zM1002.3 102.37 a4.3 4.3 0 1 0 8.6 0 a4.3 4.3 0 1 0 -8.6 0zM1039.54 123.87 a4.3 4.3 0 1 0 8.6 0 a4.3 4.3 0 1 0 -8.6 0zM1039.54 166.87 a4.3 4.3 0 1 0 8.6 0 a4.3 4.3 0 1 0 -8.6 0zM1002.3 188.37 a4.3 4.3 0 1 0 8.6 0 a4.3 4.3 0 1 0 -8.6 0zM965.06 166.87 a4.3 4.3 0 1 0 8.6 0 a4.3 4.3 0 1 0 -8.6 0zM965.06 123.87 a4.3 4.3 0 1 0 8.6 0 a4.3 4.3 0 1 0 -8.6 0zM1039.54 510.87 a4.3 4.3 0 1 0 8.6 0 a4.3 4.3 0 1 0 -8.6 0zM1039.54 553.87 a4.3 4.3 0 1 0 8.6 0 a4.3 4.3 0 1 0 -8.6 0zM1002.3 575.37 a4.3 4.3 0 1 0 8.6 0 a4.3 4.3 0 1 0 -8.6 0zM1076.78 -26.63 a4.3 4.3 0 1 0 8.6 0 a4.3 4.3 0 1 0 -8.6 0zM1114.02 -5.13 a4.3 4.3 0 1 0 8.6 0 a4.3 4.3 0 1 0 -8.6 0zM1114.02 37.87 a4.3 4.3 0 1 0 8.6 0 a4.3 4.3 0 1 0 -8.6 0zM1076.78 59.37 a4.3 4.3 0 1 0 8.6 0 a4.3 4.3 0 1 0 -8.6 0zM1039.54 37.87 a4.3 4.3 0 1 0 8.6 0 a4.3 4.3 0 1 0 -8.6 0zM1039.54 -5.13 a4.3 4.3 0 1 0 8.6 0 a4.3 4.3 0 1 0 -8.6 0zM1151.26 59.37 a4.3 4.3 0 1 0 8.6 0 a4.3 4.3 0 1 0 -8.6 0zM1151.26 102.37 a4.3 4.3 0 1 0 8.6 0 a4.3 4.3 0 1 0 -8.6 0zM1114.02 123.87 a4.3 4.3 0 1 0 8.6 0 a4.3 4.3 0 1 0 -8.6 0zM1076.78 102.37 a4.3 4.3 0 1 0 8.6 0 a4.3 4.3 0 1 0 -8.6 0zM1114.02 166.87 a4.3 4.3 0 1 0 8.6 0 a4.3 4.3 0 1 0 -8.6 0zM1076.78 188.37 a4.3 4.3 0 1 0 8.6 0 a4.3 4.3 0 1 0 -8.6 0zM1151.26 188.37 a4.3 4.3 0 1 0 8.6 0 a4.3 4.3 0 1 0 -8.6 0zM1151.26 231.37 a4.3 4.3 0 1 0 8.6 0 a4.3 4.3 0 1 0 -8.6 0zM1114.02 252.87 a4.3 4.3 0 1 0 8.6 0 a4.3 4.3 0 1 0 -8.6 0zM1076.78 231.37 a4.3 4.3 0 1 0 8.6 0 a4.3 4.3 0 1 0 -8.6 0zM1076.78 360.37 a4.3 4.3 0 1 0 8.6 0 a4.3 4.3 0 1 0 -8.6 0zM1114.02 381.87 a4.3 4.3 0 1 0 8.6 0 a4.3 4.3 0 1 0 -8.6 0zM1114.02 424.87 a4.3 4.3 0 1 0 8.6 0 a4.3 4.3 0 1 0 -8.6 0zM1076.78 446.37 a4.3 4.3 0 1 0 8.6 0 a4.3 4.3 0 1 0 -8.6 0zM1039.54 424.87 a4.3 4.3 0 1 0 8.6 0 a4.3 4.3 0 1 0 -8.6 0zM1039.54 381.87 a4.3 4.3 0 1 0 8.6 0 a4.3 4.3 0 1 0 -8.6 0zM1151.26 -26.63 a4.3 4.3 0 1 0 8.6 0 a4.3 4.3 0 1 0 -8.6 0zM1188.5 -5.13 a4.3 4.3 0 1 0 8.6 0 a4.3 4.3 0 1 0 -8.6 0zM1188.5 37.87 a4.3 4.3 0 1 0 8.6 0 a4.3 4.3 0 1 0 -8.6 0zM1188.5 252.87 a4.3 4.3 0 1 0 8.6 0 a4.3 4.3 0 1 0 -8.6 0zM1188.5 295.87 a4.3 4.3 0 1 0 8.6 0 a4.3 4.3 0 1 0 -8.6 0zM1151.26 317.37 a4.3 4.3 0 1 0 8.6 0 a4.3 4.3 0 1 0 -8.6 0zM1114.02 295.87 a4.3 4.3 0 1 0 8.6 0 a4.3 4.3 0 1 0 -8.6 0zM1151.26 360.37 a4.3 4.3 0 1 0 8.6 0 a4.3 4.3 0 1 0 -8.6 0zM1188.5 381.87 a4.3 4.3 0 1 0 8.6 0 a4.3 4.3 0 1 0 -8.6 0zM1188.5 424.87 a4.3 4.3 0 1 0 8.6 0 a4.3 4.3 0 1 0 -8.6 0zM1151.26 446.37 a4.3 4.3 0 1 0 8.6 0 a4.3 4.3 0 1 0 -8.6 0zM1225.74 446.37 a4.3 4.3 0 1 0 8.6 0 a4.3 4.3 0 1 0 -8.6 0zM1225.74 489.37 a4.3 4.3 0 1 0 8.6 0 a4.3 4.3 0 1 0 -8.6 0zM1188.5 510.87 a4.3 4.3 0 1 0 8.6 0 a4.3 4.3 0 1 0 -8.6 0zM1151.26 489.37 a4.3 4.3 0 1 0 8.6 0 a4.3 4.3 0 1 0 -8.6 0zM1225.74 -26.63 a4.3 4.3 0 1 0 8.6 0 a4.3 4.3 0 1 0 -8.6 0zM1262.98 -5.13 a4.3 4.3 0 1 0 8.6 0 a4.3 4.3 0 1 0 -8.6 0zM1262.98 37.87 a4.3 4.3 0 1 0 8.6 0 a4.3 4.3 0 1 0 -8.6 0zM1225.74 59.37 a4.3 4.3 0 1 0 8.6 0 a4.3 4.3 0 1 0 -8.6 0zM1225.74 102.37 a4.3 4.3 0 1 0 8.6 0 a4.3 4.3 0 1 0 -8.6 0zM1262.98 123.87 a4.3 4.3 0 1 0 8.6 0 a4.3 4.3 0 1 0 -8.6 0zM1262.98 166.87 a4.3 4.3 0 1 0 8.6 0 a4.3 4.3 0 1 0 -8.6 0zM1225.74 188.37 a4.3 4.3 0 1 0 8.6 0 a4.3 4.3 0 1 0 -8.6 0zM1188.5 166.87 a4.3 4.3 0 1 0 8.6 0 a4.3 4.3 0 1 0 -8.6 0zM1188.5 123.87 a4.3 4.3 0 1 0 8.6 0 a4.3 4.3 0 1 0 -8.6 0zM1300.23 188.37 a4.3 4.3 0 1 0 8.6 0 a4.3 4.3 0 1 0 -8.6 0zM1300.23 231.37 a4.3 4.3 0 1 0 8.6 0 a4.3 4.3 0 1 0 -8.6 0zM1262.98 252.87 a4.3 4.3 0 1 0 8.6 0 a4.3 4.3 0 1 0 -8.6 0zM1225.74 231.37 a4.3 4.3 0 1 0 8.6 0 a4.3 4.3 0 1 0 -8.6 0zM1262.98 510.87 a4.3 4.3 0 1 0 8.6 0 a4.3 4.3 0 1 0 -8.6 0zM1262.98 553.87 a4.3 4.3 0 1 0 8.6 0 a4.3 4.3 0 1 0 -8.6 0zM1225.74 575.37 a4.3 4.3 0 1 0 8.6 0 a4.3 4.3 0 1 0 -8.6 0zM1188.5 553.87 a4.3 4.3 0 1 0 8.6 0 a4.3 4.3 0 1 0 -8.6 0zM1300.23 575.37 a4.3 4.3 0 1 0 8.6 0 a4.3 4.3 0 1 0 -8.6 0zM1300.23 618.37 a4.3 4.3 0 1 0 8.6 0 a4.3 4.3 0 1 0 -8.6 0zM1262.98 639.87 a4.3 4.3 0 1 0 8.6 0 a4.3 4.3 0 1 0 -8.6 0zM1225.74 618.37 a4.3 4.3 0 1 0 8.6 0 a4.3 4.3 0 1 0 -8.6 0zM1300.23 -26.63 a4.3 4.3 0 1 0 8.6 0 a4.3 4.3 0 1 0 -8.6 0zM1337.47 -5.13 a4.3 4.3 0 1 0 8.6 0 a4.3 4.3 0 1 0 -8.6 0zM1337.47 37.87 a4.3 4.3 0 1 0 8.6 0 a4.3 4.3 0 1 0 -8.6 0zM1300.23 59.37 a4.3 4.3 0 1 0 8.6 0 a4.3 4.3 0 1 0 -8.6 0zM1374.71 59.37 a4.3 4.3 0 1 0 8.6 0 a4.3 4.3 0 1 0 -8.6 0zM1374.71 102.37 a4.3 4.3 0 1 0 8.6 0 a4.3 4.3 0 1 0 -8.6 0zM1337.47 123.87 a4.3 4.3 0 1 0 8.6 0 a4.3 4.3 0 1 0 -8.6 0zM1300.23 102.37 a4.3 4.3 0 1 0 8.6 0 a4.3 4.3 0 1 0 -8.6 0zM1337.47 166.87 a4.3 4.3 0 1 0 8.6 0 a4.3 4.3 0 1 0 -8.6 0zM1337.47 252.87 a4.3 4.3 0 1 0 8.6 0 a4.3 4.3 0 1 0 -8.6 0zM1337.47 295.87 a4.3 4.3 0 1 0 8.6 0 a4.3 4.3 0 1 0 -8.6 0zM1300.23 317.37 a4.3 4.3 0 1 0 8.6 0 a4.3 4.3 0 1 0 -8.6 0zM1262.98 295.87 a4.3 4.3 0 1 0 8.6 0 a4.3 4.3 0 1 0 -8.6 0zM1337.47 553.87 a4.3 4.3 0 1 0 8.6 0 a4.3 4.3 0 1 0 -8.6 0zM1374.71 575.37 a4.3 4.3 0 1 0 8.6 0 a4.3 4.3 0 1 0 -8.6 0zM1374.71 618.37 a4.3 4.3 0 1 0 8.6 0 a4.3 4.3 0 1 0 -8.6 0zM1337.47 639.87 a4.3 4.3 0 1 0 8.6 0 a4.3 4.3 0 1 0 -8.6 0zM1374.71 -26.63 a4.3 4.3 0 1 0 8.6 0 a4.3 4.3 0 1 0 -8.6 0zM1411.95 -5.13 a4.3 4.3 0 1 0 8.6 0 a4.3 4.3 0 1 0 -8.6 0zM1411.95 37.87 a4.3 4.3 0 1 0 8.6 0 a4.3 4.3 0 1 0 -8.6 0zM1411.95 166.87 a4.3 4.3 0 1 0 8.6 0 a4.3 4.3 0 1 0 -8.6 0zM1449.19 188.37 a4.3 4.3 0 1 0 8.6 0 a4.3 4.3 0 1 0 -8.6 0zM1449.19 231.37 a4.3 4.3 0 1 0 8.6 0 a4.3 4.3 0 1 0 -8.6 0zM1411.95 252.87 a4.3 4.3 0 1 0 8.6 0 a4.3 4.3 0 1 0 -8.6 0zM1374.71 231.37 a4.3 4.3 0 1 0 8.6 0 a4.3 4.3 0 1 0 -8.6 0zM1374.71 188.37 a4.3 4.3 0 1 0 8.6 0 a4.3 4.3 0 1 0 -8.6 0zM1411.95 295.87 a4.3 4.3 0 1 0 8.6 0 a4.3 4.3 0 1 0 -8.6 0zM1449.19 317.37 a4.3 4.3 0 1 0 8.6 0 a4.3 4.3 0 1 0 -8.6 0zM1449.19 360.37 a4.3 4.3 0 1 0 8.6 0 a4.3 4.3 0 1 0 -8.6 0zM1411.95 381.87 a4.3 4.3 0 1 0 8.6 0 a4.3 4.3 0 1 0 -8.6 0zM1374.71 360.37 a4.3 4.3 0 1 0 8.6 0 a4.3 4.3 0 1 0 -8.6 0zM1374.71 317.37 a4.3 4.3 0 1 0 8.6 0 a4.3 4.3 0 1 0 -8.6 0zM1411.95 424.87 a4.3 4.3 0 1 0 8.6 0 a4.3 4.3 0 1 0 -8.6 0zM1449.19 446.37 a4.3 4.3 0 1 0 8.6 0 a4.3 4.3 0 1 0 -8.6 0zM1449.19 489.37 a4.3 4.3 0 1 0 8.6 0 a4.3 4.3 0 1 0 -8.6 0zM1411.95 510.87 a4.3 4.3 0 1 0 8.6 0 a4.3 4.3 0 1 0 -8.6 0zM1374.71 489.37 a4.3 4.3 0 1 0 8.6 0 a4.3 4.3 0 1 0 -8.6 0zM1374.71 446.37 a4.3 4.3 0 1 0 8.6 0 a4.3 4.3 0 1 0 -8.6 0zM1411.95 553.87 a4.3 4.3 0 1 0 8.6 0 a4.3 4.3 0 1 0 -8.6 0zM1337.47 510.87 a4.3 4.3 0 1 0 8.6 0 a4.3 4.3 0 1 0 -8.6 0zM1449.19 -26.63 a4.3 4.3 0 1 0 8.6 0 a4.3 4.3 0 1 0 -8.6 0zM1486.43 -5.13 a4.3 4.3 0 1 0 8.6 0 a4.3 4.3 0 1 0 -8.6 0zM1486.43 37.87 a4.3 4.3 0 1 0 8.6 0 a4.3 4.3 0 1 0 -8.6 0zM1449.19 59.37 a4.3 4.3 0 1 0 8.6 0 a4.3 4.3 0 1 0 -8.6 0zM1523.67 59.37 a4.3 4.3 0 1 0 8.6 0 a4.3 4.3 0 1 0 -8.6 0zM1523.67 102.37 a4.3 4.3 0 1 0 8.6 0 a4.3 4.3 0 1 0 -8.6 0zM1486.43 123.87 a4.3 4.3 0 1 0 8.6 0 a4.3 4.3 0 1 0 -8.6 0zM1449.19 102.37 a4.3 4.3 0 1 0 8.6 0 a4.3 4.3 0 1 0 -8.6 0zM1486.43 166.87 a4.3 4.3 0 1 0 8.6 0 a4.3 4.3 0 1 0 -8.6 0zM1523.67 188.37 a4.3 4.3 0 1 0 8.6 0 a4.3 4.3 0 1 0 -8.6 0zM1523.67 231.37 a4.3 4.3 0 1 0 8.6 0 a4.3 4.3 0 1 0 -8.6 0zM1486.43 252.87 a4.3 4.3 0 1 0 8.6 0 a4.3 4.3 0 1 0 -8.6 0zM1486.43 553.87 a4.3 4.3 0 1 0 8.6 0 a4.3 4.3 0 1 0 -8.6 0zM1523.67 575.37 a4.3 4.3 0 1 0 8.6 0 a4.3 4.3 0 1 0 -8.6 0zM1523.67 618.37 a4.3 4.3 0 1 0 8.6 0 a4.3 4.3 0 1 0 -8.6 0zM1486.43 639.87 a4.3 4.3 0 1 0 8.6 0 a4.3 4.3 0 1 0 -8.6 0zM1449.19 618.37 a4.3 4.3 0 1 0 8.6 0 a4.3 4.3 0 1 0 -8.6 0zM1449.19 575.37 a4.3 4.3 0 1 0 8.6 0 a4.3 4.3 0 1 0 -8.6 0z" fill="#03305d"></path><path d="M52.62 34.57L82.93 52.07L82.93 87.07L52.62 104.57L22.31 87.07L22.31 52.07zM52.62 559.57L82.93 577.07L82.93 612.07L52.62 629.57L22.31 612.07L22.31 577.07zM82.93 507.07L113.25 524.57L113.25 559.57L82.93 577.07L52.62 559.57L52.62 524.57zM113.25 559.57L143.56 577.07L143.56 612.07L113.25 629.57L82.93 612.07L82.93 577.07zM143.56 87.07L173.87 104.57L173.87 139.57L143.56 157.07L113.25 139.57L113.25 104.57zM143.56 297.07L173.87 314.57L173.87 349.57L143.56 367.07L113.25 349.57L113.25 314.57zM143.56 402.07L173.87 419.57L173.87 454.57L143.56 472.07L113.25 454.57L113.25 419.57zM143.56 507.07L173.87 524.57L173.87 559.57L143.56 577.07L113.25 559.57L113.25 524.57zM234.49 139.57L264.8 157.07L264.8 192.07L234.49 209.57L204.18 192.07L204.18 157.07zM234.49 244.57L264.8 262.07L264.8 297.07L234.49 314.57L204.18 297.07L204.18 262.07zM204.18 402.07L234.49 419.57L234.49 454.57L204.18 472.07L173.87 454.57L173.87 419.57zM234.49 454.57L264.8 472.07L264.8 507.07L234.49 524.57L204.18 507.07L204.18 472.07zM264.8 87.07L295.12 104.57L295.12 139.57L264.8 157.07L234.49 139.57L234.49 104.57zM295.12 139.57L325.43 157.07L325.43 192.07L295.12 209.57L264.8 192.07L264.8 157.07zM295.12 454.57L325.43 472.07L325.43 507.07L295.12 524.57L264.8 507.07L264.8 472.07zM355.74 244.57L386.05 262.07L386.05 297.07L355.74 314.57L325.43 297.07L325.43 262.07zM386.05 -17.93L416.36 -0.43L416.36 34.57L386.05 52.07L355.74 34.57L355.74 -0.43zM476.99 139.57L507.3 157.07L507.3 192.07L476.99 209.57L446.67 192.07L446.67 157.07zM446.67 507.07L476.99 524.57L476.99 559.57L446.67 577.07L416.36 559.57L416.36 524.57zM537.61 454.57L567.92 472.07L567.92 507.07L537.61 524.57L507.3 507.07L507.3 472.07zM598.23 34.57L628.54 52.07L628.54 87.07L598.23 104.57L567.92 87.07L567.92 52.07zM567.92 87.07L598.23 104.57L598.23 139.57L567.92 157.07L537.61 139.57L537.61 104.57zM598.23 244.57L628.54 262.07L628.54 297.07L598.23 314.57L567.92 297.07L567.92 262.07zM598.23 454.57L628.54 472.07L628.54 507.07L598.23 524.57L567.92 507.07L567.92 472.07zM658.86 244.57L689.17 262.07L689.17 297.07L658.86 314.57L628.54 297.07L628.54 262.07zM658.86 349.57L689.17 367.07L689.17 402.07L658.86 419.57L628.54 402.07L628.54 367.07zM658.86 454.57L689.17 472.07L689.17 507.07L658.86 524.57L628.54 507.07L628.54 472.07zM749.79 -17.93L780.1 -0.43L780.1 34.57L749.79 52.07L719.48 34.57L719.48 -0.43zM780.1 34.57L810.42 52.07L810.42 87.07L780.1 104.57L749.79 87.07L749.79 52.07zM749.79 402.07L780.1 419.57L780.1 454.57L749.79 472.07L719.48 454.57L719.48 419.57zM749.79 507.07L780.1 524.57L780.1 559.57L749.79 577.07L719.48 559.57L719.48 524.57zM810.42 87.07L840.73 104.57L840.73 139.57L810.42 157.07L780.1 139.57L780.1 104.57zM840.73 454.57L871.04 472.07L871.04 507.07L840.73 524.57L810.42 507.07L810.42 472.07zM840.73 559.57L871.04 577.07L871.04 612.07L840.73 629.57L810.42 612.07L810.42 577.07zM871.04 192.07L901.35 209.57L901.35 244.57L871.04 262.07L840.73 244.57L840.73 209.57zM992.29 192.07L1022.6 209.57L1022.6 244.57L992.29 262.07L961.97 244.57L961.97 209.57zM1022.6 454.57L1052.91 472.07L1052.91 507.07L1022.6 524.57L992.29 507.07L992.29 472.07zM992.29 507.07L1022.6 524.57L1022.6 559.57L992.29 577.07L961.97 559.57L961.97 524.57zM1052.91 192.07L1083.22 209.57L1083.22 244.57L1052.91 262.07L1022.6 244.57L1022.6 209.57zM1143.84 139.57L1174.16 157.07L1174.16 192.07L1143.84 209.57L1113.53 192.07L1113.53 157.07zM1113.53 192.07L1143.84 209.57L1143.84 244.57L1113.53 262.07L1083.22 244.57L1083.22 209.57zM1113.53 507.07L1143.84 524.57L1143.84 559.57L1113.53 577.07L1083.22 559.57L1083.22 524.57zM1174.16 87.07L1204.47 104.57L1204.47 139.57L1174.16 157.07L1143.84 139.57L1143.84 104.57zM1265.09 139.57L1295.4 157.07L1295.4 192.07L1265.09 209.57L1234.78 192.07L1234.78 157.07zM1265.09 244.57L1295.4 262.07L1295.4 297.07L1265.09 314.57L1234.78 297.07L1234.78 262.07zM1265.09 454.57L1295.4 472.07L1295.4 507.07L1265.09 524.57L1234.78 507.07L1234.78 472.07zM1325.72 34.57L1356.03 52.07L1356.03 87.07L1325.72 104.57L1295.4 87.07L1295.4 52.07zM1295.4 192.07L1325.72 209.57L1325.72 244.57L1295.4 262.07L1265.09 244.57L1265.09 209.57zM1325.72 244.57L1356.03 262.07L1356.03 297.07L1325.72 314.57L1295.4 297.07L1295.4 262.07zM1386.34 34.57L1416.65 52.07L1416.65 87.07L1386.34 104.57L1356.03 87.07L1356.03 52.07zM1356.03 87.07L1386.34 104.57L1386.34 139.57L1356.03 157.07L1325.72 139.57L1325.72 104.57zM1386.34 244.57L1416.65 262.07L1416.65 297.07L1386.34 314.57L1356.03 297.07L1356.03 262.07zM1386.34 349.57L1416.65 367.07L1416.65 402.07L1386.34 419.57L1356.03 402.07L1356.03 367.07zM1416.65 297.07L1446.96 314.57L1446.96 349.57L1416.65 367.07L1386.34 349.57L1386.34 314.57z" stroke="rgba(6, 80, 156, 0.93)" stroke-width="2"></path></g><defs><mask id="SvgjsMask1009"><rect width="1440" height="560" fill="#ffffff"></rect></mask></defs></svg>