<svg xmlns="http://www.w3.org/2000/svg" version="1.1" xmlns:xlink="http://www.w3.org/1999/xlink" xmlns:svgjs="http://svgjs.com/svgjs" width="1440" height="560" preserveAspectRatio="none" viewBox="0 0 1440 560"><g mask="url(&quot;#SvgjsMask1006&quot;)" fill="none"><rect width="1440" height="560" x="0" y="0" fill="#0e2a47"></rect><path d="M202.29 427.02L202.29 430.75L226.22 430.75L226.22 427.02zM219.62 428.88 a6.6 6.6 0 1 0 13.2 0 a6.6 6.6 0 1 0 -13.2 0zM197.59 454.4L196.16 457.84L219.42 467.48L220.85 464.03zM213.54 465.76 a6.6 6.6 0 1 0 13.2 0 a6.6 6.6 0 1 0 -13.2 0zM182.76 477.89L180.13 480.53L195.72 496.12L198.36 493.48zM190.44 494.8 a6.6 6.6 0 1 0 13.2 0 a6.6 6.6 0 1 0 -13.2 0zM160.08 493.92L156.64 495.35L165.58 516.94L169.02 515.51zM160.7 516.23 a6.6 6.6 0 1 0 13.2 0 a6.6 6.6 0 1 0 -13.2 0zM132.99 500.05L129.26 500.05L129.26 534.73L132.99 534.73zM124.52 534.73 a6.6 6.6 0 1 0 13.2 0 a6.6 6.6 0 1 0 -13.2 0zM105.61 495.35L102.16 493.92L93.98 513.68L97.43 515.1zM89.1 514.39 a6.6 6.6 0 1 0 13.2 0 a6.6 6.6 0 1 0 -13.2 0zM82.12 480.53L79.48 477.89L55.67 501.7L58.31 504.33zM50.39 503.02 a6.6 6.6 0 1 0 13.2 0 a6.6 6.6 0 1 0 -13.2 0zM66.08 457.84L64.66 454.4L48.38 461.14L49.8 464.58zM42.49 462.86 a6.6 6.6 0 1 0 13.2 0 a6.6 6.6 0 1 0 -13.2 0zM59.95 430.75L59.95 427.02L36.9 427.02L36.9 430.75zM30.3 428.88 a6.6 6.6 0 1 0 13.2 0 a6.6 6.6 0 1 0 -13.2 0zM64.66 403.37L66.08 399.93L33.98 386.63L32.55 390.07zM26.67 388.35 a6.6 6.6 0 1 0 13.2 0 a6.6 6.6 0 1 0 -13.2 0zM79.48 379.88L82.12 377.24L63.87 359L61.24 361.63zM55.95 360.32 a6.6 6.6 0 1 0 13.2 0 a6.6 6.6 0 1 0 -13.2 0zM102.16 363.85L105.61 362.42L100 348.88L96.56 350.31zM91.68 349.6 a6.6 6.6 0 1 0 13.2 0 a6.6 6.6 0 1 0 -13.2 0zM129.26 357.71L132.99 357.71L132.99 334.79L129.26 334.79zM124.52 334.79 a6.6 6.6 0 1 0 13.2 0 a6.6 6.6 0 1 0 -13.2 0zM156.64 362.42L160.08 363.85L169.96 339.98L166.52 338.56zM161.64 339.27 a6.6 6.6 0 1 0 13.2 0 a6.6 6.6 0 1 0 -13.2 0zM180.13 377.24L182.76 379.88L191.26 371.39L188.62 368.75zM183.34 370.07 a6.6 6.6 0 1 0 13.2 0 a6.6 6.6 0 1 0 -13.2 0zM196.16 399.93L197.59 403.37L215.08 396.13L213.65 392.68zM207.76 394.4 a6.6 6.6 0 1 0 13.2 0 a6.6 6.6 0 1 0 -13.2 0zM59.93 428.88 a71.19 71.19 0 1 0 142.38 0 a71.19 71.19 0 1 0 -142.38 0z" fill="#488fdb"></path><path d="M104.03 363.05 A70.1936 70.1936 0 0 1 201.7 438.19M201.7 438.19 A142.3872 142.3872 0 0 0 104.03 363.05" fill="#2672c3" fill-rule="nonzero"></path><path d="M60.61 430.89 a12.1 12.1 0 1 0 24.2 0 a12.1 12.1 0 1 0 -24.2 0zM130.04 440.46 a14.24 14.24 0 1 0 28.48 0 a14.24 14.24 0 1 0 -28.48 0zM177.66 389.55 a5.7 5.7 0 1 0 11.4 0 a5.7 5.7 0 1 0 -11.4 0zM81.57 400.12 a8.54 8.54 0 1 0 17.08 0 a8.54 8.54 0 1 0 -17.08 0zM108.09 431.78 a4.27 4.27 0 1 0 8.54 0 a4.27 4.27 0 1 0 -8.54 0zM81.99 477.26 a5.7 5.7 0 1 0 11.4 0 a5.7 5.7 0 1 0 -11.4 0zM169.4 455.25 a3.56 3.56 0 1 0 7.12 0 a3.56 3.56 0 1 0 -7.12 0zM126.97 373.12 a14.24 14.24 0 1 0 28.48 0 a14.24 14.24 0 1 0 -28.48 0zM122.17 486.15 a13.53 13.53 0 1 0 27.06 0 a13.53 13.53 0 1 0 -27.06 0zM164.11 415.64 a7.83 7.83 0 1 0 15.66 0 a7.83 7.83 0 1 0 -15.66 0z" fill="#2672c3" fill-rule="nonzero"></path><path d="M1353.68 165.61L1353.68 169.34L1377.31 169.34L1377.31 165.61zM1370.71 167.47 a6.6 6.6 0 1 0 13.2 0 a6.6 6.6 0 1 0 -13.2 0zM1348.98 192.99L1347.55 196.43L1368.99 205.31L1370.42 201.87zM1363.11 203.59 a6.6 6.6 0 1 0 13.2 0 a6.6 6.6 0 1 0 -13.2 0zM1334.15 216.48L1331.52 219.12L1350.62 238.22L1353.26 235.59zM1345.34 236.9 a6.6 6.6 0 1 0 13.2 0 a6.6 6.6 0 1 0 -13.2 0zM1311.47 232.51L1308.03 233.94L1312.01 243.57L1315.46 242.14zM1307.13 242.85 a6.6 6.6 0 1 0 13.2 0 a6.6 6.6 0 1 0 -13.2 0zM1284.38 238.64L1280.65 238.64L1280.65 260.27L1284.38 260.27zM1275.91 260.27 a6.6 6.6 0 1 0 13.2 0 a6.6 6.6 0 1 0 -13.2 0zM1257 233.94L1253.56 232.51L1241.22 262.28L1244.67 263.71zM1236.35 262.99 a6.6 6.6 0 1 0 13.2 0 a6.6 6.6 0 1 0 -13.2 0zM1233.51 219.12L1230.87 216.48L1206.83 240.52L1209.46 243.16zM1201.55 241.84 a6.6 6.6 0 1 0 13.2 0 a6.6 6.6 0 1 0 -13.2 0zM1217.47 196.43L1216.05 192.99L1196.36 201.14L1197.79 204.59zM1190.47 202.86 a6.6 6.6 0 1 0 13.2 0 a6.6 6.6 0 1 0 -13.2 0zM1211.34 169.34L1211.34 165.61L1186.49 165.61L1186.49 169.34zM1179.89 167.47 a6.6 6.6 0 1 0 13.2 0 a6.6 6.6 0 1 0 -13.2 0zM1216.05 141.96L1217.47 138.52L1192.5 128.17L1191.07 131.62zM1185.19 129.89 a6.6 6.6 0 1 0 13.2 0 a6.6 6.6 0 1 0 -13.2 0zM1230.87 118.47L1233.51 115.83L1215.33 97.66L1212.7 100.3zM1207.42 98.98 a6.6 6.6 0 1 0 13.2 0 a6.6 6.6 0 1 0 -13.2 0zM1253.56 102.44L1257 101.01L1244.16 70.02L1240.72 71.45zM1235.84 70.74 a6.6 6.6 0 1 0 13.2 0 a6.6 6.6 0 1 0 -13.2 0zM1280.65 96.3L1284.38 96.3L1284.38 68.81L1280.65 68.81zM1275.91 68.81 a6.6 6.6 0 1 0 13.2 0 a6.6 6.6 0 1 0 -13.2 0zM1308.03 101.01L1311.47 102.44L1323.71 72.89L1320.26 71.46zM1315.39 72.18 a6.6 6.6 0 1 0 13.2 0 a6.6 6.6 0 1 0 -13.2 0zM1331.52 115.83L1334.15 118.47L1348.69 103.94L1346.05 101.3zM1340.77 102.62 a6.6 6.6 0 1 0 13.2 0 a6.6 6.6 0 1 0 -13.2 0zM1347.55 138.52L1348.98 141.96L1373.69 131.72L1372.26 128.28zM1366.38 130 a6.6 6.6 0 1 0 13.2 0 a6.6 6.6 0 1 0 -13.2 0zM1211.32 167.47 a71.19 71.19 0 1 0 142.38 0 a71.19 71.19 0 1 0 -142.38 0z" fill="#488fdb"></path><path d="M1352.01 182.93 A70.1936 70.1936 0 0 1 1234.49 220.03M1234.49 220.03 A142.3872 142.3872 0 0 0 1352.01 182.93" fill="#2672c3" fill-rule="nonzero"></path><path d="M1304.37 105.25 a3.56 3.56 0 1 0 7.12 0 a3.56 3.56 0 1 0 -7.12 0zM1274.07 107.6 a7.83 7.83 0 1 0 15.66 0 a7.83 7.83 0 1 0 -15.66 0zM1319.13 145.15 a14.24 14.24 0 1 0 28.48 0 a14.24 14.24 0 1 0 -28.48 0zM1293.04 189.52 a14.24 14.24 0 1 0 28.48 0 a14.24 14.24 0 1 0 -28.48 0zM1248.74 143.5 a14.24 14.24 0 1 0 28.48 0 a14.24 14.24 0 1 0 -28.48 0zM1212.4 177.83 a2.85 2.85 0 1 0 5.7 0 a2.85 2.85 0 1 0 -5.7 0zM1334.8 181.78 a2.85 2.85 0 1 0 5.7 0 a2.85 2.85 0 1 0 -5.7 0zM1224.93 194.83 a5.7 5.7 0 1 0 11.4 0 a5.7 5.7 0 1 0 -11.4 0zM1244.48 178.72 a4.27 4.27 0 1 0 8.54 0 a4.27 4.27 0 1 0 -8.54 0zM1254.01 111.96 a2.85 2.85 0 1 0 5.7 0 a2.85 2.85 0 1 0 -5.7 0z" fill="#2672c3" fill-rule="nonzero"></path><path d="M639.57 248.4L639.57 252.13L667.32 252.13L667.32 248.4zM660.72 250.26 a6.6 6.6 0 1 0 13.2 0 a6.6 6.6 0 1 0 -13.2 0zM634.86 275.78L633.44 279.22L664.14 291.94L665.56 288.49zM658.25 290.22 a6.6 6.6 0 1 0 13.2 0 a6.6 6.6 0 1 0 -13.2 0zM620.04 299.27L617.4 301.91L636.68 321.18L639.32 318.55zM631.4 319.86 a6.6 6.6 0 1 0 13.2 0 a6.6 6.6 0 1 0 -13.2 0zM597.35 315.3L593.91 316.73L603.26 339.3L606.7 337.87zM598.38 338.59 a6.6 6.6 0 1 0 13.2 0 a6.6 6.6 0 1 0 -13.2 0zM570.26 321.43L566.53 321.43L566.53 339.14L570.26 339.14zM561.8 339.14 a6.6 6.6 0 1 0 13.2 0 a6.6 6.6 0 1 0 -13.2 0zM542.88 316.73L539.44 315.3L530.67 336.48L534.11 337.9zM525.79 337.19 a6.6 6.6 0 1 0 13.2 0 a6.6 6.6 0 1 0 -13.2 0zM519.39 301.91L516.76 299.27L491.9 324.12L494.54 326.76zM486.62 325.44 a6.6 6.6 0 1 0 13.2 0 a6.6 6.6 0 1 0 -13.2 0zM503.36 279.22L501.93 275.78L472.38 288.02L473.8 291.46zM466.49 289.74 a6.6 6.6 0 1 0 13.2 0 a6.6 6.6 0 1 0 -13.2 0zM497.23 252.13L497.23 248.4L479.64 248.4L479.64 252.13zM473.04 250.26 a6.6 6.6 0 1 0 13.2 0 a6.6 6.6 0 1 0 -13.2 0zM501.93 224.75L503.36 221.31L471.16 207.97L469.74 211.41zM463.85 209.69 a6.6 6.6 0 1 0 13.2 0 a6.6 6.6 0 1 0 -13.2 0zM516.76 201.26L519.39 198.62L503.44 182.67L500.8 185.3zM495.52 183.99 a6.6 6.6 0 1 0 13.2 0 a6.6 6.6 0 1 0 -13.2 0zM539.44 185.22L542.88 183.8L531.64 156.66L528.2 158.09zM523.32 157.38 a6.6 6.6 0 1 0 13.2 0 a6.6 6.6 0 1 0 -13.2 0zM566.53 179.09L570.26 179.09L570.26 147.17L566.53 147.17zM561.8 147.17 a6.6 6.6 0 1 0 13.2 0 a6.6 6.6 0 1 0 -13.2 0zM593.91 183.8L597.35 185.22L603.54 170.29L600.1 168.87zM595.22 169.58 a6.6 6.6 0 1 0 13.2 0 a6.6 6.6 0 1 0 -13.2 0zM617.4 198.62L620.04 201.26L626.92 194.38L624.28 191.74zM619 193.06 a6.6 6.6 0 1 0 13.2 0 a6.6 6.6 0 1 0 -13.2 0zM633.44 221.31L634.86 224.75L656.45 215.81L655.03 212.36zM649.14 214.08 a6.6 6.6 0 1 0 13.2 0 a6.6 6.6 0 1 0 -13.2 0zM497.21 250.26 a71.19 71.19 0 1 0 142.38 0 a71.19 71.19 0 1 0 -142.38 0z" fill="#488fdb"></path><path d="M563.23 321.27 A70.1936 70.1936 0 0 1 509.4 210.41M509.4 210.41 A142.3872 142.3872 0 0 0 563.23 321.27" fill="#2672c3" fill-rule="nonzero"></path><path d="M524.7 247.51 a14.24 14.24 0 1 0 28.48 0 a14.24 14.24 0 1 0 -28.48 0zM561.73 268.32 a9.97 9.97 0 1 0 19.94 0 a9.97 9.97 0 1 0 -19.94 0zM554.58 218.35 a9.97 9.97 0 1 0 19.94 0 a9.97 9.97 0 1 0 -19.94 0zM609.25 231.93 a13.53 13.53 0 1 0 27.06 0 a13.53 13.53 0 1 0 -27.06 0zM511.64 211.09 a9.97 9.97 0 1 0 19.94 0 a9.97 9.97 0 1 0 -19.94 0zM569.01 297.14 a4.27 4.27 0 1 0 8.54 0 a4.27 4.27 0 1 0 -8.54 0zM608.83 292.33 a7.12 7.12 0 1 0 14.24 0 a7.12 7.12 0 1 0 -14.24 0zM601.45 257.99 a3.56 3.56 0 1 0 7.12 0 a3.56 3.56 0 1 0 -7.12 0zM574.31 185.82 a5.7 5.7 0 1 0 11.4 0 a5.7 5.7 0 1 0 -11.4 0zM534.35 279.75 a3.56 3.56 0 1 0 7.12 0 a3.56 3.56 0 1 0 -7.12 0z" fill="#2672c3" fill-rule="nonzero"></path><path d="M1112.35 473.82L1112.35 476.15L1122.48 476.15L1122.48 473.82zM1118.35 474.99 a4.13 4.13 0 1 0 8.26 0 a4.13 4.13 0 1 0 -8.26 0zM1109.41 490.94L1108.52 493.09L1125.9 500.29L1126.79 498.13zM1122.22 499.21 a4.13 4.13 0 1 0 8.26 0 a4.13 4.13 0 1 0 -8.26 0zM1100.15 505.62L1098.5 507.27L1104.51 513.28L1106.16 511.63zM1101.21 512.45 a4.13 4.13 0 1 0 8.26 0 a4.13 4.13 0 1 0 -8.26 0zM1085.97 515.64L1083.82 516.53L1088.77 528.49L1090.93 527.6zM1085.72 528.05 a4.13 4.13 0 1 0 8.26 0 a4.13 4.13 0 1 0 -8.26 0zM1069.04 519.47L1066.71 519.47L1066.71 531.64L1069.04 531.64zM1063.74 531.64 a4.13 4.13 0 1 0 8.26 0 a4.13 4.13 0 1 0 -8.26 0zM1051.93 516.53L1049.77 515.64L1042.67 532.79L1044.82 533.68zM1039.62 533.23 a4.13 4.13 0 1 0 8.26 0 a4.13 4.13 0 1 0 -8.26 0zM1037.24 507.27L1035.6 505.62L1028.04 513.18L1029.68 514.82zM1024.73 514 a4.13 4.13 0 1 0 8.26 0 a4.13 4.13 0 1 0 -8.26 0zM1027.22 493.09L1026.33 490.94L1013.79 496.13L1014.68 498.28zM1010.1 497.21 a4.13 4.13 0 1 0 8.26 0 a4.13 4.13 0 1 0 -8.26 0zM1023.39 476.15L1023.39 473.82L1003.17 473.82L1003.17 476.15zM999.04 474.99 a4.13 4.13 0 1 0 8.26 0 a4.13 4.13 0 1 0 -8.26 0zM1026.33 459.04L1027.22 456.89L1019.66 453.76L1018.76 455.91zM1015.08 454.83 a4.13 4.13 0 1 0 8.26 0 a4.13 4.13 0 1 0 -8.26 0zM1035.6 444.36L1037.24 442.71L1032.48 437.95L1030.84 439.6zM1027.53 438.78 a4.13 4.13 0 1 0 8.26 0 a4.13 4.13 0 1 0 -8.26 0zM1049.77 434.34L1051.93 433.45L1045.15 417.1L1043 417.99zM1039.95 417.54 a4.13 4.13 0 1 0 8.26 0 a4.13 4.13 0 1 0 -8.26 0zM1066.71 430.51L1069.04 430.51L1069.04 409.02L1066.71 409.02zM1063.74 409.02 a4.13 4.13 0 1 0 8.26 0 a4.13 4.13 0 1 0 -8.26 0zM1083.82 433.45L1085.97 434.34L1090.9 422.45L1088.74 421.56zM1085.69 422 a4.13 4.13 0 1 0 8.26 0 a4.13 4.13 0 1 0 -8.26 0zM1098.5 442.71L1100.15 444.36L1105.37 439.14L1103.72 437.49zM1100.41 438.32 a4.13 4.13 0 1 0 8.26 0 a4.13 4.13 0 1 0 -8.26 0zM1108.52 456.89L1109.41 459.04L1115.05 456.71L1114.16 454.56zM1110.47 455.63 a4.13 4.13 0 1 0 8.26 0 a4.13 4.13 0 1 0 -8.26 0zM1023.37 474.99 a44.5 44.5 0 1 0 89 0 a44.5 44.5 0 1 0 -89 0z" fill="#488fdb"></path><path d="M1109.84 460.2 A43.496 43.496 0 0 1 1059.79 518.74M1059.79 518.74 A88.992 88.992 0 0 0 1109.84 460.2" fill="#2672c3" fill-rule="nonzero"></path><path d="M1071.59 479.76 a8.9 8.9 0 1 0 17.8 0 a8.9 8.9 0 1 0 -17.8 0zM1043.02 468.99 a8.9 8.9 0 1 0 17.8 0 a8.9 8.9 0 1 0 -17.8 0zM1097.7 473.56 a1.78 1.78 0 1 0 3.56 0 a1.78 1.78 0 1 0 -3.56 0zM1023.85 469.81 a2.22 2.22 0 1 0 4.44 0 a2.22 2.22 0 1 0 -4.44 0zM1051.16 449.21 a1.78 1.78 0 1 0 3.56 0 a1.78 1.78 0 1 0 -3.56 0zM1025.25 483.42 a2.22 2.22 0 1 0 4.44 0 a2.22 2.22 0 1 0 -4.44 0zM1056.72 503.63 a8.9 8.9 0 1 0 17.8 0 a8.9 8.9 0 1 0 -17.8 0zM1066.89 448.32 a8.9 8.9 0 1 0 17.8 0 a8.9 8.9 0 1 0 -17.8 0zM1083.67 500.04 a3.56 3.56 0 1 0 7.12 0 a3.56 3.56 0 1 0 -7.12 0zM1031.83 498.45 a7.56 7.56 0 1 0 15.12 0 a7.56 7.56 0 1 0 -15.12 0z" fill="#2672c3" fill-rule="nonzero"></path><path d="M873.84 447.56L873.84 450.83L888.09 450.83L888.09 447.56zM882.31 449.2 a5.78 5.78 0 1 0 11.56 0 a5.78 5.78 0 1 0 -11.56 0zM869.72 471.52L868.47 474.53L878.86 478.83L880.11 475.82zM873.7 477.33 a5.78 5.78 0 1 0 11.56 0 a5.78 5.78 0 1 0 -11.56 0zM856.75 492.08L854.45 494.38L875.67 515.6L877.97 513.3zM871.04 514.45 a5.78 5.78 0 1 0 11.56 0 a5.78 5.78 0 1 0 -11.56 0zM836.9 506.1L833.89 507.35L842.22 527.46L845.23 526.21zM837.94 526.83 a5.78 5.78 0 1 0 11.56 0 a5.78 5.78 0 1 0 -11.56 0zM813.2 511.47L809.93 511.47L809.93 541.31L813.2 541.31zM805.78 541.31 a5.78 5.78 0 1 0 11.56 0 a5.78 5.78 0 1 0 -11.56 0zM789.24 507.35L786.23 506.1L781.9 516.56L784.91 517.81zM777.62 517.19 a5.78 5.78 0 1 0 11.56 0 a5.78 5.78 0 1 0 -11.56 0zM768.68 494.38L766.38 492.08L759.58 498.88L761.88 501.18zM754.95 500.03 a5.78 5.78 0 1 0 11.56 0 a5.78 5.78 0 1 0 -11.56 0zM754.66 474.53L753.41 471.52L730.78 480.89L732.03 483.9zM725.63 482.4 a5.78 5.78 0 1 0 11.56 0 a5.78 5.78 0 1 0 -11.56 0zM749.29 450.83L749.29 447.56L729.8 447.56L729.8 450.83zM724.02 449.2 a5.78 5.78 0 1 0 11.56 0 a5.78 5.78 0 1 0 -11.56 0zM753.41 426.87L754.66 423.86L735.52 415.93L734.27 418.95zM729.12 417.44 a5.78 5.78 0 1 0 11.56 0 a5.78 5.78 0 1 0 -11.56 0zM766.38 406.31L768.68 404.01L747.1 382.42L744.79 384.73zM740.16 383.57 a5.78 5.78 0 1 0 11.56 0 a5.78 5.78 0 1 0 -11.56 0zM786.23 392.29L789.24 391.04L780.37 369.63L777.36 370.88zM773.09 370.26 a5.78 5.78 0 1 0 11.56 0 a5.78 5.78 0 1 0 -11.56 0zM809.93 386.92L813.2 386.92L813.2 358.36L809.93 358.36zM805.78 358.36 a5.78 5.78 0 1 0 11.56 0 a5.78 5.78 0 1 0 -11.56 0zM833.89 391.04L836.9 392.29L841.6 380.95L838.58 379.7zM834.31 380.33 a5.78 5.78 0 1 0 11.56 0 a5.78 5.78 0 1 0 -11.56 0zM854.45 404.01L856.75 406.31L878.41 384.66L876.1 382.35zM871.48 383.5 a5.78 5.78 0 1 0 11.56 0 a5.78 5.78 0 1 0 -11.56 0zM868.47 423.86L869.72 426.87L894.78 416.49L893.53 413.48zM888.37 414.99 a5.78 5.78 0 1 0 11.56 0 a5.78 5.78 0 1 0 -11.56 0zM749.27 449.2 a62.29 62.29 0 1 0 124.58 0 a62.29 62.29 0 1 0 -124.58 0z" fill="#488fdb"></path><path d="M852.75 495.93 A61.294399999999996 61.294399999999996 0 0 1 750.52 461.63M750.52 461.63 A124.58879999999999 124.58879999999999 0 0 0 852.75 495.93" fill="#2672c3" fill-rule="nonzero"></path><path d="M817.36 504.33 a5.61 5.61 0 1 0 11.22 0 a5.61 5.61 0 1 0 -11.22 0zM797.15 422.26 a12.46 12.46 0 1 0 24.92 0 a12.46 12.46 0 1 0 -24.92 0zM776.46 429.62 a4.36 4.36 0 1 0 8.72 0 a4.36 4.36 0 1 0 -8.72 0zM815.41 465.18 a12.46 12.46 0 1 0 24.92 0 a12.46 12.46 0 1 0 -24.92 0zM766.8 490.69 a2.49 2.49 0 1 0 4.98 0 a2.49 2.49 0 1 0 -4.98 0zM756.31 430.43 a3.74 3.74 0 1 0 7.48 0 a3.74 3.74 0 1 0 -7.48 0zM861.08 422.75 a3.11 3.11 0 1 0 6.22 0 a3.11 3.11 0 1 0 -6.22 0zM845 409.07 a4.36 4.36 0 1 0 8.72 0 a4.36 4.36 0 1 0 -8.72 0zM774.58 401.91 a4.98 4.98 0 1 0 9.96 0 a4.98 4.98 0 1 0 -9.96 0zM786.86 448.47 a4.98 4.98 0 1 0 9.96 0 a4.98 4.98 0 1 0 -9.96 0z" fill="#2672c3" fill-rule="nonzero"></path><path d="M320.67 205.25L320.67 207.58L340.94 207.58L340.94 205.25zM336.81 206.42 a4.13 4.13 0 1 0 8.26 0 a4.13 4.13 0 1 0 -8.26 0zM317.73 222.36L316.84 224.52L334.47 231.82L335.36 229.67zM330.78 230.74 a4.13 4.13 0 1 0 8.26 0 a4.13 4.13 0 1 0 -8.26 0zM308.46 237.05L306.82 238.69L320.61 252.48L322.25 250.84zM317.3 251.66 a4.13 4.13 0 1 0 8.26 0 a4.13 4.13 0 1 0 -8.26 0zM294.29 247.07L292.13 247.96L299.7 266.22L301.85 265.32zM296.64 265.77 a4.13 4.13 0 1 0 8.26 0 a4.13 4.13 0 1 0 -8.26 0zM277.35 250.9L275.02 250.9L275.02 264.15L277.35 264.15zM272.06 264.15 a4.13 4.13 0 1 0 8.26 0 a4.13 4.13 0 1 0 -8.26 0zM260.24 247.96L258.09 247.07L251.16 263.79L253.32 264.68zM248.11 264.24 a4.13 4.13 0 1 0 8.26 0 a4.13 4.13 0 1 0 -8.26 0zM245.56 238.69L243.91 237.05L237.68 243.28L239.33 244.92zM234.38 244.1 a4.13 4.13 0 1 0 8.26 0 a4.13 4.13 0 1 0 -8.26 0zM235.54 224.52L234.65 222.36L220.97 228.03L221.86 230.18zM217.28 229.11 a4.13 4.13 0 1 0 8.26 0 a4.13 4.13 0 1 0 -8.26 0zM231.71 207.58L231.71 205.25L223.9 205.25L223.9 207.58zM219.77 206.42 a4.13 4.13 0 1 0 8.26 0 a4.13 4.13 0 1 0 -8.26 0zM234.65 190.47L235.54 188.32L218.16 181.12L217.27 183.27zM213.59 182.2 a4.13 4.13 0 1 0 8.26 0 a4.13 4.13 0 1 0 -8.26 0zM243.91 175.79L245.56 174.14L238.54 167.12L236.89 168.77zM233.58 167.94 a4.13 4.13 0 1 0 8.26 0 a4.13 4.13 0 1 0 -8.26 0zM258.09 165.77L260.24 164.88L253.08 147.59L250.93 148.48zM247.88 148.04 a4.13 4.13 0 1 0 8.26 0 a4.13 4.13 0 1 0 -8.26 0zM275.02 161.94L277.35 161.94L277.35 143.93L275.02 143.93zM272.06 143.93 a4.13 4.13 0 1 0 8.26 0 a4.13 4.13 0 1 0 -8.26 0zM292.13 164.88L294.29 165.77L301.42 148.55L299.27 147.66zM296.21 148.1 a4.13 4.13 0 1 0 8.26 0 a4.13 4.13 0 1 0 -8.26 0zM306.82 174.14L308.46 175.79L317.55 166.7L315.9 165.06zM312.6 165.88 a4.13 4.13 0 1 0 8.26 0 a4.13 4.13 0 1 0 -8.26 0zM316.84 188.32L317.73 190.47L324.34 187.73L323.45 185.58zM319.77 186.66 a4.13 4.13 0 1 0 8.26 0 a4.13 4.13 0 1 0 -8.26 0zM231.69 206.42 a44.5 44.5 0 1 0 89 0 a44.5 44.5 0 1 0 -89 0z" fill="#488fdb"></path><path d="M319.85 197.86 A43.496 43.496 0 0 1 261.86 248.54M261.86 248.54 A88.992 88.992 0 0 0 319.85 197.86" fill="#2672c3" fill-rule="nonzero"></path><path d="M253.44 173.35 a8.45 8.45 0 1 0 16.9 0 a8.45 8.45 0 1 0 -16.9 0zM295.16 192.86 a8.9 8.9 0 1 0 17.8 0 a8.9 8.9 0 1 0 -17.8 0zM274.9 231.6 a8.9 8.9 0 1 0 17.8 0 a8.9 8.9 0 1 0 -17.8 0zM242.32 205.21 a8.9 8.9 0 1 0 17.8 0 a8.9 8.9 0 1 0 -17.8 0zM316.94 208.39 a1.78 1.78 0 1 0 3.56 0 a1.78 1.78 0 1 0 -3.56 0zM272.88 195.65 a6.67 6.67 0 1 0 13.34 0 a6.67 6.67 0 1 0 -13.34 0zM238.51 225.52 a4 4 0 1 0 8 0 a4 4 0 1 0 -8 0zM301.41 228.33 a1.78 1.78 0 1 0 3.56 0 a1.78 1.78 0 1 0 -3.56 0zM257.57 240.07 a4.89 4.89 0 1 0 9.78 0 a4.89 4.89 0 1 0 -9.78 0zM243.66 184.82 a2.22 2.22 0 1 0 4.44 0 a2.22 2.22 0 1 0 -4.44 0z" fill="#2672c3" fill-rule="nonzero"></path><path d="M1050.88 81.54L1050.88 83.87L1058.9 83.87L1058.9 81.54zM1054.77 82.7 a4.13 4.13 0 1 0 8.26 0 a4.13 4.13 0 1 0 -8.26 0zM1047.94 98.65L1047.05 100.8L1066.11 108.7L1067 106.54zM1062.43 107.62 a4.13 4.13 0 1 0 8.26 0 a4.13 4.13 0 1 0 -8.26 0zM1038.68 113.33L1037.03 114.98L1049.1 127.05L1050.75 125.4zM1045.8 126.23 a4.13 4.13 0 1 0 8.26 0 a4.13 4.13 0 1 0 -8.26 0zM1024.5 123.35L1022.35 124.24L1025.49 131.82L1027.64 130.93zM1022.43 131.37 a4.13 4.13 0 1 0 8.26 0 a4.13 4.13 0 1 0 -8.26 0zM1007.57 127.18L1005.24 127.18L1005.24 142.89L1007.57 142.89zM1002.27 142.89 a4.13 4.13 0 1 0 8.26 0 a4.13 4.13 0 1 0 -8.26 0zM990.46 124.24L988.31 123.35L981.02 140.93L983.18 141.82zM977.97 141.38 a4.13 4.13 0 1 0 8.26 0 a4.13 4.13 0 1 0 -8.26 0zM975.77 114.98L974.13 113.33L962.07 125.39L963.72 127.03zM958.76 126.21 a4.13 4.13 0 1 0 8.26 0 a4.13 4.13 0 1 0 -8.26 0zM965.75 100.8L964.86 98.65L954.86 102.79L955.75 104.95zM951.17 103.87 a4.13 4.13 0 1 0 8.26 0 a4.13 4.13 0 1 0 -8.26 0zM961.92 83.87L961.92 81.54L952.35 81.54L952.35 83.87zM948.22 82.7 a4.13 4.13 0 1 0 8.26 0 a4.13 4.13 0 1 0 -8.26 0zM964.86 66.76L965.75 64.6L953.23 59.42L952.34 61.57zM948.65 60.49 a4.13 4.13 0 1 0 8.26 0 a4.13 4.13 0 1 0 -8.26 0zM974.13 52.07L975.77 50.43L968.02 42.68L966.38 44.32zM963.07 43.5 a4.13 4.13 0 1 0 8.26 0 a4.13 4.13 0 1 0 -8.26 0zM988.31 42.05L990.46 41.16L984.94 27.83L982.78 28.72zM979.73 28.28 a4.13 4.13 0 1 0 8.26 0 a4.13 4.13 0 1 0 -8.26 0zM1005.24 38.22L1007.57 38.22L1007.57 22.81L1005.24 22.81zM1002.27 22.81 a4.13 4.13 0 1 0 8.26 0 a4.13 4.13 0 1 0 -8.26 0zM1022.35 41.16L1024.5 42.05L1030.11 28.52L1027.96 27.63zM1024.9 28.07 a4.13 4.13 0 1 0 8.26 0 a4.13 4.13 0 1 0 -8.26 0zM1037.03 50.43L1038.68 52.07L1053.97 36.78L1052.33 35.13zM1049.02 35.96 a4.13 4.13 0 1 0 8.26 0 a4.13 4.13 0 1 0 -8.26 0zM1047.05 64.6L1047.94 66.76L1066.6 59.03L1065.71 56.88zM1062.02 57.95 a4.13 4.13 0 1 0 8.26 0 a4.13 4.13 0 1 0 -8.26 0zM961.9 82.7 a44.5 44.5 0 1 0 89 0 a44.5 44.5 0 1 0 -89 0z" fill="#488fdb"></path><path d="M962.66 90.86 A43.496 43.496 0 0 1 1021.12 40.71M1021.12 40.71 A88.992 88.992 0 0 0 962.66 90.86" fill="#2672c3" fill-rule="nonzero"></path><path d="M988.11 117.25 a8.01 8.01 0 1 0 16.02 0 a8.01 8.01 0 1 0 -16.02 0zM969.88 62.37 a8.9 8.9 0 1 0 17.8 0 a8.9 8.9 0 1 0 -17.8 0zM993.86 50.13 a8.01 8.01 0 1 0 16.02 0 a8.01 8.01 0 1 0 -16.02 0zM1020.45 108.85 a8.9 8.9 0 1 0 17.8 0 a8.9 8.9 0 1 0 -17.8 0zM1028.83 77.72 a8.9 8.9 0 1 0 17.8 0 a8.9 8.9 0 1 0 -17.8 0zM1021.7 63.9 a1.78 1.78 0 1 0 3.56 0 a1.78 1.78 0 1 0 -3.56 0zM996.18 84.23 a8.9 8.9 0 1 0 17.8 0 a8.9 8.9 0 1 0 -17.8 0zM1035.36 57.88 a1.78 1.78 0 1 0 3.56 0 a1.78 1.78 0 1 0 -3.56 0zM962.13 86.85 a2.22 2.22 0 1 0 4.44 0 a2.22 2.22 0 1 0 -4.44 0zM1014.02 123.93 a1.78 1.78 0 1 0 3.56 0 a1.78 1.78 0 1 0 -3.56 0z" fill="#2672c3" fill-rule="nonzero"></path><path d="M121.31 118.68L121.31 121.01L137.56 121.01L137.56 118.68zM133.43 119.84 a4.13 4.13 0 1 0 8.26 0 a4.13 4.13 0 1 0 -8.26 0zM118.37 135.79L117.48 137.94L129.42 142.89L130.31 140.74zM125.73 141.81 a4.13 4.13 0 1 0 8.26 0 a4.13 4.13 0 1 0 -8.26 0zM109.11 150.47L107.46 152.12L112.59 157.25L114.24 155.61zM109.29 156.43 a4.13 4.13 0 1 0 8.26 0 a4.13 4.13 0 1 0 -8.26 0zM94.93 160.49L92.78 161.39L99.04 176.49L101.19 175.6zM95.98 176.05 a4.13 4.13 0 1 0 8.26 0 a4.13 4.13 0 1 0 -8.26 0zM78 164.33L75.67 164.33L75.67 184.81L78 184.81zM72.7 184.81 a4.13 4.13 0 1 0 8.26 0 a4.13 4.13 0 1 0 -8.26 0zM60.89 161.39L58.73 160.49L54.22 171.39L56.37 172.28zM51.17 171.83 a4.13 4.13 0 1 0 8.26 0 a4.13 4.13 0 1 0 -8.26 0zM46.2 152.12L44.56 150.47L36.46 158.57L38.11 160.22zM33.15 159.39 a4.13 4.13 0 1 0 8.26 0 a4.13 4.13 0 1 0 -8.26 0zM36.18 137.94L35.29 135.79L15.95 143.8L16.84 145.96zM12.26 144.88 a4.13 4.13 0 1 0 8.26 0 a4.13 4.13 0 1 0 -8.26 0zM32.35 121.01L32.35 118.68L25.27 118.68L25.27 121.01zM21.14 119.84 a4.13 4.13 0 1 0 8.26 0 a4.13 4.13 0 1 0 -8.26 0zM35.29 103.9L36.18 101.75L28.24 98.46L27.35 100.61zM23.66 99.53 a4.13 4.13 0 1 0 8.26 0 a4.13 4.13 0 1 0 -8.26 0zM44.56 89.22L46.2 87.57L34.68 76.05L33.04 77.7zM29.73 76.87 a4.13 4.13 0 1 0 8.26 0 a4.13 4.13 0 1 0 -8.26 0zM58.73 79.2L60.89 78.3L57.37 69.8L55.21 70.7zM52.16 70.25 a4.13 4.13 0 1 0 8.26 0 a4.13 4.13 0 1 0 -8.26 0zM75.67 75.36L78 75.36L78 53.78L75.67 53.78zM72.7 53.78 a4.13 4.13 0 1 0 8.26 0 a4.13 4.13 0 1 0 -8.26 0zM92.78 78.3L94.93 79.2L99.74 67.59L97.58 66.7zM94.53 67.15 a4.13 4.13 0 1 0 8.26 0 a4.13 4.13 0 1 0 -8.26 0zM107.46 87.57L109.11 89.22L124.25 74.08L122.6 72.43zM119.29 73.25 a4.13 4.13 0 1 0 8.26 0 a4.13 4.13 0 1 0 -8.26 0zM117.48 101.75L118.37 103.9L135.3 96.89L134.41 94.74zM130.72 95.81 a4.13 4.13 0 1 0 8.26 0 a4.13 4.13 0 1 0 -8.26 0zM32.33 119.84 a44.5 44.5 0 1 0 89 0 a44.5 44.5 0 1 0 -89 0z" fill="#488fdb"></path><path d="M34.72 105.48 A43.496 43.496 0 0 1 110.27 90.49M110.27 90.49 A88.992 88.992 0 0 0 34.72 105.48" fill="#2672c3" fill-rule="nonzero"></path><path d="M85.92 95.69 a8.9 8.9 0 1 0 17.8 0 a8.9 8.9 0 1 0 -17.8 0zM68.84 93.78 a4 4 0 1 0 8 0 a4 4 0 1 0 -8 0zM74.9 123.88 a8.9 8.9 0 1 0 17.8 0 a8.9 8.9 0 1 0 -17.8 0zM63.66 109.67 a3.56 3.56 0 1 0 7.12 0 a3.56 3.56 0 1 0 -7.12 0zM43.92 96.95 a7.56 7.56 0 1 0 15.12 0 a7.56 7.56 0 1 0 -15.12 0zM52.87 151.62 a8.9 8.9 0 1 0 17.8 0 a8.9 8.9 0 1 0 -17.8 0zM32.46 117.77 a6.67 6.67 0 1 0 13.34 0 a6.67 6.67 0 1 0 -13.34 0zM94.51 153.88 a4 4 0 1 0 8 0 a4 4 0 1 0 -8 0zM106.48 110.87 a4 4 0 1 0 8 0 a4 4 0 1 0 -8 0zM79.52 144.38 a2.67 2.67 0 1 0 5.34 0 a2.67 2.67 0 1 0 -5.34 0z" fill="#2672c3" fill-rule="nonzero"></path><path d="M816.27 105.57L816.27 107.43L826.42 107.43L826.42 105.57zM823.12 106.5 a3.3 3.3 0 1 0 6.6 0 a3.3 3.3 0 1 0 -6.6 0zM813.92 119.25L813.2 120.98L822.88 124.98L823.59 123.26zM819.93 124.12 a3.3 3.3 0 1 0 6.6 0 a3.3 3.3 0 1 0 -6.6 0zM806.5 131L805.19 132.32L809.05 136.18L810.36 134.86zM806.41 135.52 a3.3 3.3 0 1 0 6.6 0 a3.3 3.3 0 1 0 -6.6 0zM795.16 139.02L793.44 139.73L797.01 148.36L798.74 147.65zM794.58 148 a3.3 3.3 0 1 0 6.6 0 a3.3 3.3 0 1 0 -6.6 0zM781.61 142.08L779.75 142.08L779.75 147.1L781.61 147.1zM777.38 147.1 a3.3 3.3 0 1 0 6.6 0 a3.3 3.3 0 1 0 -6.6 0zM767.93 139.73L766.2 139.02L761.05 151.46L762.77 152.17zM758.61 151.82 a3.3 3.3 0 1 0 6.6 0 a3.3 3.3 0 1 0 -6.6 0zM756.18 132.32L754.86 131L751.12 134.74L752.44 136.06zM748.48 135.4 a3.3 3.3 0 1 0 6.6 0 a3.3 3.3 0 1 0 -6.6 0zM748.16 120.98L747.45 119.25L733.4 125.07L734.11 126.8zM730.46 125.94 a3.3 3.3 0 1 0 6.6 0 a3.3 3.3 0 1 0 -6.6 0zM745.1 107.43L745.1 105.57L730.99 105.57L730.99 107.43zM727.69 106.5 a3.3 3.3 0 1 0 6.6 0 a3.3 3.3 0 1 0 -6.6 0zM747.45 93.74L748.16 92.02L744.02 90.3L743.3 92.02zM740.36 91.16 a3.3 3.3 0 1 0 6.6 0 a3.3 3.3 0 1 0 -6.6 0zM754.86 81.99L756.18 80.68L752.17 76.67L750.85 77.98zM748.21 77.33 a3.3 3.3 0 1 0 6.6 0 a3.3 3.3 0 1 0 -6.6 0zM766.2 73.98L767.93 73.27L763.2 61.85L761.47 62.56zM759.04 62.2 a3.3 3.3 0 1 0 6.6 0 a3.3 3.3 0 1 0 -6.6 0zM779.75 70.91L781.61 70.91L781.61 60.68L779.75 60.68zM777.38 60.68 a3.3 3.3 0 1 0 6.6 0 a3.3 3.3 0 1 0 -6.6 0zM793.44 73.27L795.16 73.98L800.21 61.78L798.49 61.07zM796.05 61.43 a3.3 3.3 0 1 0 6.6 0 a3.3 3.3 0 1 0 -6.6 0zM805.19 80.68L806.5 81.99L814.81 73.69L813.49 72.37zM810.85 73.03 a3.3 3.3 0 1 0 6.6 0 a3.3 3.3 0 1 0 -6.6 0zM813.2 92.02L813.92 93.74L827.45 88.13L826.74 86.41zM823.79 87.27 a3.3 3.3 0 1 0 6.6 0 a3.3 3.3 0 1 0 -6.6 0zM745.08 106.5 a35.6 35.6 0 1 0 71.2 0 a35.6 35.6 0 1 0 -71.2 0z" fill="#488fdb"></path><path d="M816.23 104.65 A34.5968 34.5968 0 0 1 764.58 138.24M764.58 138.24 A71.1936 71.1936 0 0 0 816.23 104.65" fill="#2672c3" fill-rule="nonzero"></path><path d="M780.6 121.79 a7.12 7.12 0 1 0 14.24 0 a7.12 7.12 0 1 0 -14.24 0zM788.82 94.99 a7.12 7.12 0 1 0 14.24 0 a7.12 7.12 0 1 0 -14.24 0zM775.61 134.21 a1.78 1.78 0 1 0 3.56 0 a1.78 1.78 0 1 0 -3.56 0zM761.09 87.67 a7.12 7.12 0 1 0 14.24 0 a7.12 7.12 0 1 0 -14.24 0zM809.47 114.25 a2.85 2.85 0 1 0 5.7 0 a2.85 2.85 0 1 0 -5.7 0zM804.44 124.52 a1.78 1.78 0 1 0 3.56 0 a1.78 1.78 0 1 0 -3.56 0zM748.2 118.79 a6.76 6.76 0 1 0 13.52 0 a6.76 6.76 0 1 0 -13.52 0zM774.47 101.57 a1.78 1.78 0 1 0 3.56 0 a1.78 1.78 0 1 0 -3.56 0zM761.11 134.1 a3.2 3.2 0 1 0 6.4 0 a3.2 3.2 0 1 0 -6.4 0zM748.9 93.28 a2.85 2.85 0 1 0 5.7 0 a2.85 2.85 0 1 0 -5.7 0z" fill="#2672c3" fill-rule="nonzero"></path><path d="M1395.53 424.35L1395.53 426.68L1416.54 426.68L1416.54 424.35zM1412.41 425.52 a4.13 4.13 0 1 0 8.26 0 a4.13 4.13 0 1 0 -8.26 0zM1392.59 441.46L1391.7 443.62L1396.97 445.8L1397.86 443.65zM1393.29 444.72 a4.13 4.13 0 1 0 8.26 0 a4.13 4.13 0 1 0 -8.26 0zM1383.32 456.15L1381.68 457.79L1390.68 466.8L1392.32 465.15zM1387.37 465.97 a4.13 4.13 0 1 0 8.26 0 a4.13 4.13 0 1 0 -8.26 0zM1369.14 466.17L1366.99 467.06L1374.34 484.79L1376.49 483.9zM1371.28 484.34 a4.13 4.13 0 1 0 8.26 0 a4.13 4.13 0 1 0 -8.26 0zM1352.21 470L1349.88 470L1349.88 479.21L1352.21 479.21zM1346.92 479.21 a4.13 4.13 0 1 0 8.26 0 a4.13 4.13 0 1 0 -8.26 0zM1335.1 467.06L1332.95 466.17L1329.52 474.44L1331.68 475.33zM1326.47 474.88 a4.13 4.13 0 1 0 8.26 0 a4.13 4.13 0 1 0 -8.26 0zM1320.42 457.79L1318.77 456.15L1309.27 465.65L1310.91 467.3zM1305.96 466.47 a4.13 4.13 0 1 0 8.26 0 a4.13 4.13 0 1 0 -8.26 0zM1310.4 443.62L1309.51 441.46L1301.45 444.8L1302.34 446.95zM1297.77 445.88 a4.13 4.13 0 1 0 8.26 0 a4.13 4.13 0 1 0 -8.26 0zM1306.57 426.68L1306.57 424.35L1289.57 424.35L1289.57 426.68zM1285.44 425.52 a4.13 4.13 0 1 0 8.26 0 a4.13 4.13 0 1 0 -8.26 0zM1309.51 409.57L1310.4 407.42L1294.36 400.78L1293.47 402.93zM1289.78 401.85 a4.13 4.13 0 1 0 8.26 0 a4.13 4.13 0 1 0 -8.26 0zM1318.77 394.89L1320.42 393.24L1308.07 380.9L1306.42 382.54zM1303.12 381.72 a4.13 4.13 0 1 0 8.26 0 a4.13 4.13 0 1 0 -8.26 0zM1332.95 384.87L1335.1 383.98L1330.32 372.44L1328.17 373.33zM1325.11 372.88 a4.13 4.13 0 1 0 8.26 0 a4.13 4.13 0 1 0 -8.26 0zM1349.88 381.04L1352.21 381.04L1352.21 360.78L1349.88 360.78zM1346.92 360.78 a4.13 4.13 0 1 0 8.26 0 a4.13 4.13 0 1 0 -8.26 0zM1366.99 383.98L1369.14 384.87L1373.91 373.37L1371.76 372.47zM1368.7 372.92 a4.13 4.13 0 1 0 8.26 0 a4.13 4.13 0 1 0 -8.26 0zM1381.68 393.24L1383.32 394.89L1388.96 389.25L1387.31 387.61zM1384 388.43 a4.13 4.13 0 1 0 8.26 0 a4.13 4.13 0 1 0 -8.26 0zM1391.7 407.42L1392.59 409.57L1402.97 405.27L1402.08 403.12zM1398.4 404.19 a4.13 4.13 0 1 0 8.26 0 a4.13 4.13 0 1 0 -8.26 0zM1306.55 425.52 a44.5 44.5 0 1 0 89 0 a44.5 44.5 0 1 0 -89 0z" fill="#488fdb"></path><path d="M1322.37 459.54 A43.496 43.496 0 0 1 1335.83 383.7M1335.83 383.7 A88.992 88.992 0 0 0 1322.37 459.54" fill="#2672c3" fill-rule="nonzero"></path><path d="M1350.7 432.81 a8.9 8.9 0 1 0 17.8 0 a8.9 8.9 0 1 0 -17.8 0zM1307.05 429.46 a6.23 6.23 0 1 0 12.46 0 a6.23 6.23 0 1 0 -12.46 0zM1320.47 395.14 a3.11 3.11 0 1 0 6.22 0 a3.11 3.11 0 1 0 -6.22 0zM1332.18 451.45 a8.45 8.45 0 1 0 16.9 0 a8.45 8.45 0 1 0 -16.9 0zM1365.65 454.91 a7.56 7.56 0 1 0 15.12 0 a7.56 7.56 0 1 0 -15.12 0zM1325.06 414.92 a8.9 8.9 0 1 0 17.8 0 a8.9 8.9 0 1 0 -17.8 0zM1337.44 395.96 a1.78 1.78 0 1 0 3.56 0 a1.78 1.78 0 1 0 -3.56 0zM1376.71 427.19 a4.45 4.45 0 1 0 8.9 0 a4.45 4.45 0 1 0 -8.9 0zM1373.11 407.13 a6.67 6.67 0 1 0 13.34 0 a6.67 6.67 0 1 0 -13.34 0zM1312.62 447.47 a1.78 1.78 0 1 0 3.56 0 a1.78 1.78 0 1 0 -3.56 0z" fill="#2672c3" fill-rule="nonzero"></path></g><defs><mask id="SvgjsMask1006"><rect width="1440" height="560" fill="#ffffff"></rect></mask></defs></svg>